<svg width="160" height="80" viewBox="0 0 160 80" fill="none" xmlns="http://www.w3.org/2000/svg">
<g clip-path="url(#clip0_1534_34524)">
<path fill-rule="evenodd" clip-rule="evenodd" d="M57.7098 19.7199C57.7098 19.7199 48.9648 7 29.3549 7C13.1899 7 1 16.01 1 21.3099C1 27.4049 13.1899 30.5849 13.1899 40.1249H34.1249C34.1249 34.5599 15.8399 31.6449 15.8399 19.7199C15.8399 8.85499 44.1948 9.64999 57.7098 19.7199Z" fill="url(#paint0_linear_1534_34524)"/>
<path fill-rule="evenodd" clip-rule="evenodd" d="M57.7098 60.5299C57.7098 60.5299 48.9648 73.2499 29.3549 73.2499C13.1899 73.2499 1 64.2399 1 58.9399C1 52.8449 13.1899 49.4 13.1899 40.125H34.1249C34.1249 45.69 15.8399 48.605 15.8399 60.5299C15.8399 71.3949 44.1948 70.5999 57.7098 60.5299Z" fill="url(#paint1_linear_1534_34524)"/>
<path fill-rule="evenodd" clip-rule="evenodd" d="M1.265 19.4551C1 20.2501 1 20.7801 1 21.3101C1 27.405 13.1899 30.585 13.1899 40.125C13.1899 49.4 1 52.8449 1 58.9399C1 59.4699 1 59.9999 1.265 60.5299C-0.324994 54.6999 20.8749 49.665 30.6799 44.365C32.7999 43.04 34.1249 41.715 34.1249 40.125C34.1249 38.535 32.7999 37.21 30.6799 35.885C20.8749 30.585 -0.324994 25.5501 1.265 19.4551Z" fill="url(#paint2_linear_1534_34524)"/>
<path d="M118.081 30.2627C118.726 30.6638 119.578 30.5275 120.301 30.6461C120.652 30.7798 120.897 31.0996 121.001 31.4541C121.096 31.791 121.124 32.1423 121.122 32.4916C121.12 33.3868 121.122 34.282 121.122 35.1772C121.991 34.8915 122.928 34.8096 123.839 34.8043C124.471 34.7958 125.111 34.7624 125.726 34.9289C126.045 35.0029 126.336 35.1202 126.62 35.2814C126.954 35.463 127.309 35.6904 127.545 35.9938C128.036 36.6531 128.295 37.4435 128.363 38.2588C128.336 40.8494 128.365 43.4604 128.348 46.0536C127.918 46.0936 127.481 46.1119 127.051 46.0785C126.534 46.0136 126.037 45.8596 125.697 45.4428C125.317 45.0018 125.292 44.3831 125.307 43.8293C125.29 42.2846 125.366 40.7183 125.22 39.1913C125.173 38.8578 125.142 38.4619 124.973 38.1644C124.803 37.9042 124.457 37.7567 124.165 37.684C123.14 37.4494 122.106 37.5759 121.122 37.9226C121.12 39.848 121.122 41.7728 121.121 43.6982C121.114 44.1314 121.166 44.522 121.029 44.9421C120.938 45.2803 120.736 45.5555 120.42 45.7141C119.684 46.0838 118.878 46.0589 118.078 46.0399C118.083 40.7812 118.077 35.522 118.081 30.2627Z" fill="white"/>
<path d="M132.903 30.6335C133.435 30.5312 133.979 30.6721 134.378 31.0398C134.791 31.4435 134.964 32.0523 134.825 32.6133C134.663 33.3113 133.982 33.8552 133.263 33.8395C132.376 33.8821 131.558 33.0406 131.621 32.1539C131.64 31.4297 132.196 30.7783 132.903 30.6335Z" fill="white"/>
<path d="M131.699 34.3428C131.877 34.4417 132.05 34.5354 132.252 34.5787C132.743 34.6705 133.218 34.6718 133.709 34.6967C134.021 34.7104 134.282 34.9149 134.451 35.1646C134.689 35.5126 134.732 36.0035 134.747 36.4144C134.751 38.9486 134.743 41.4842 134.75 44.0185C134.752 44.3429 134.685 44.6778 134.539 44.9681C134.376 45.2755 134.092 45.4511 133.773 45.5652C133.11 45.7926 132.395 45.8103 131.701 45.7683C131.7 41.96 131.704 38.1511 131.699 34.3428Z" fill="white"/>
<path d="M57.6781 34.5573C58.6835 34.5232 59.6704 34.5593 60.6607 34.75C61.5821 34.9512 62.4767 35.2939 63.1314 35.9998C63.7166 36.623 63.9925 37.534 64.0011 38.3754C63.9998 40.8606 64.003 43.3464 63.9998 45.8315C63.3555 45.8315 62.653 45.8741 62.0363 45.6663C61.7434 45.5726 61.476 45.4396 61.2866 45.1886C61.067 44.8937 60.9602 44.5077 60.9491 44.1433C60.955 42.3319 60.9484 40.5145 60.953 38.7031C60.97 38.304 60.7452 37.8964 60.4241 37.6663C59.9824 37.3374 59.3238 37.2843 58.7923 37.3046C58.095 37.34 57.3963 37.4357 56.7141 37.5831C56.7384 37.8472 56.7744 38.1133 56.7751 38.3754C56.7737 40.101 56.7751 41.8272 56.7744 43.5528C56.7698 43.9355 56.8131 44.2842 56.6918 44.6564C56.5902 45.0221 56.3832 45.3413 56.0411 45.5202C55.3077 45.8911 54.518 45.8321 53.7217 45.8308C53.7191 42.6464 53.723 39.4627 53.7198 36.2783C53.7257 36.026 53.6844 35.8045 53.8345 35.5823C54.0514 35.2186 54.4957 35.0639 54.8739 34.9276C55.7573 34.6602 56.7626 34.6065 57.6781 34.5573Z" fill="white"/>
<path d="M97.7226 34.5498C98.9613 34.542 100.2 34.5511 101.438 34.5459C101.496 35.0374 101.505 35.5302 101.406 36.0178C101.343 36.3239 101.258 36.687 101.036 36.919C100.771 37.2126 100.401 37.322 100.018 37.3535C99.4102 37.3908 98.6932 37.3273 98.1099 37.5153C97.7003 37.6536 97.3451 37.9099 97.2095 38.3372C97.0699 38.8359 97.0568 39.3831 97.0607 39.8982C97.062 41.9639 97.06 44.0296 97.062 46.0953C96.4493 45.6831 95.7985 45.6222 95.1012 45.457C94.7473 45.3849 94.4681 45.1542 94.263 44.8652C94.0775 44.5932 94.0231 44.221 94.0172 43.8979C94.0166 42.194 94.0172 40.4887 94.0166 38.7841C94.0087 38.1412 94.0474 37.4432 94.2643 36.8331C94.5336 36.1319 94.9819 35.5119 95.6268 35.1115C96.2684 34.7556 96.9866 34.5505 97.7226 34.5498Z" fill="white"/>
<path d="M142.893 34.5072C143.675 34.5531 144.436 34.6226 145.187 34.8572C146.066 35.1213 146.893 35.5945 147.39 36.3894C147.762 37.0029 147.939 37.7421 147.92 38.4571C147.918 40.8983 147.92 43.3402 147.92 45.7814C147.135 45.7827 146.355 45.8404 145.63 45.4839C145.136 45.2545 144.904 44.6745 144.875 44.16C144.879 42.3211 144.874 40.4809 144.878 38.6537C144.892 38.1222 144.524 37.6418 144.043 37.4433C143.506 37.2263 142.936 37.2316 142.367 37.2748C141.784 37.3318 141.205 37.4066 140.633 37.535C140.661 37.7546 140.69 37.9721 140.69 38.1936C140.694 40.1768 140.687 42.1776 140.694 44.1587C140.66 44.6699 140.439 45.2348 139.954 45.4747C139.235 45.8397 138.422 45.7867 137.639 45.7788C137.635 42.5079 137.639 39.237 137.637 35.9661C137.628 35.6449 137.819 35.3861 138.071 35.2085C138.361 35.0224 138.698 34.9005 139.03 34.8107C139.715 34.6488 140.422 34.5656 141.125 34.5374C141.713 34.4889 142.305 34.4915 142.893 34.5072Z" fill="white"/>
<path fill-rule="evenodd" clip-rule="evenodd" d="M49.8762 35.8698C49.348 35.2846 48.6435 34.9825 47.8912 34.7977C46.9979 34.6024 46.0516 34.5722 45.1413 34.6292C44.2316 34.6948 43.3344 34.8396 42.5198 35.2734C41.8835 35.6083 41.3212 36.033 40.9705 36.6753C40.3578 37.7494 40.2018 39.1158 40.2202 40.3322C40.2444 41.5243 40.4115 42.8212 41.0433 43.858C41.5263 44.6641 42.3081 45.1851 43.1758 45.5049C44.4236 45.965 45.8641 46.0397 47.1827 45.9919C47.8813 45.9453 48.6737 45.8608 49.3022 45.5305C49.7734 45.2861 50.0611 44.843 50.2092 44.3443C50.3475 43.8338 50.3907 43.3062 50.3606 42.7786C50.1759 42.8026 49.9916 42.827 49.8075 42.8513C48.7818 42.987 47.7619 43.1219 46.724 43.1758C46.6213 43.177 46.5176 43.1792 46.4133 43.1814C45.7917 43.1946 45.1474 43.2083 44.5632 43.0192C44.2873 42.9359 44.0114 42.7983 43.8017 42.5984C43.6169 42.4129 43.5769 42.1862 43.5337 41.9385C44.44 41.5806 45.4952 41.5276 46.4618 41.4954C46.5111 41.4966 46.5603 41.4978 46.6094 41.4991C47.2472 41.5149 47.8669 41.5303 48.5059 41.4293C48.5409 41.4238 48.5762 41.4184 48.6118 41.413C49.0099 41.3521 49.44 41.2864 49.8015 41.118C50.2347 40.9213 50.5408 40.4934 50.7 40.0569C50.8776 39.553 50.8521 38.9487 50.8259 38.4211C50.7348 37.5108 50.5165 36.5599 49.8762 35.8698ZM46.9208 37.3793C46.3611 37.1361 45.7497 37.0785 45.1487 37.1696C44.589 37.2862 44.0621 37.5025 43.7246 37.9874C43.3609 38.538 43.3661 39.1671 43.4415 39.7989C43.9082 39.5582 44.3972 39.5087 44.9097 39.4567C44.9247 39.4552 44.9397 39.4537 44.9547 39.4522C45.1637 39.4405 45.3723 39.4276 45.581 39.4147C45.8528 39.3979 46.1247 39.3811 46.3972 39.367C46.7747 39.3152 47.1993 39.1946 47.4903 38.9358C47.7341 38.7293 47.8062 38.3708 47.7289 38.0707C47.6044 37.707 47.2498 37.5241 46.9208 37.3793Z" fill="white"/>
<path fill-rule="evenodd" clip-rule="evenodd" d="M76.1062 30.5874C75.6321 30.5671 75.1717 30.5474 74.7096 30.2627C74.7102 31.0062 74.7101 31.7498 74.71 32.4933C74.7099 33.3856 74.7098 34.2778 74.7109 35.17C73.9448 34.6923 73.0044 34.6883 72.1314 34.7067C70.7958 34.7395 69.491 35.1831 68.4968 36.0908C67.751 36.7796 67.3184 37.6951 67.1127 38.6782C66.937 39.4679 66.9554 40.236 66.996 41.0381C67.0583 41.9937 67.2516 43.0252 67.728 43.866C68.1632 44.6466 68.8874 45.222 69.7197 45.5319C70.3744 45.7961 71.1032 45.9107 71.8031 45.9763C73.1243 46.0399 74.4756 46.0123 75.77 45.7141C76.4142 45.5418 77.1312 45.2233 77.5493 44.6833C77.5695 44.6555 77.5929 44.6284 77.6165 44.601C77.6895 44.5166 77.7645 44.4298 77.7531 44.3149C77.7538 42.3482 77.7536 40.3815 77.7534 38.4149C77.7533 36.4487 77.7531 34.4826 77.7538 32.5165C77.7524 32.1344 77.74 31.713 77.6129 31.3499C77.487 31.015 77.2518 30.73 76.8847 30.6618C76.6197 30.6093 76.361 30.5983 76.1062 30.5874ZM74.716 37.5209C73.9355 37.2614 72.9511 37.1886 72.1444 37.3413C71.5893 37.4816 71.0119 37.7876 70.6666 38.2562C70.2452 38.8638 70.0984 39.6535 70.0898 40.3803C70.0951 41.0291 70.2504 41.7369 70.639 42.2684C70.8822 42.6026 71.2217 42.847 71.6116 42.982C72.1175 43.1577 72.6444 43.2619 73.1812 43.2403C73.693 43.2219 74.2219 43.1839 74.716 43.0417C74.7286 42.6935 74.7262 42.3461 74.7238 41.9984C74.723 41.8741 74.7221 41.7498 74.7219 41.6254C74.7095 40.2577 74.7075 38.8893 74.716 37.5209Z" fill="white"/>
<path fill-rule="evenodd" clip-rule="evenodd" d="M110.996 34.7534C110.03 34.5273 109.049 34.4755 108.06 34.5043C107.31 34.5417 106.569 34.602 105.832 34.7514C105.219 34.8838 104.64 35.1263 104.149 35.5215C104.003 35.6419 103.879 35.7984 103.757 35.9507C103.721 35.9965 103.685 36.0418 103.648 36.0857C103.649 39.1027 103.649 42.1196 103.649 45.1366C103.649 46.1416 103.649 47.1466 103.649 48.1516C103.664 48.5763 103.705 49.0743 103.962 49.4302C104.122 49.6556 104.361 49.8719 104.652 49.8857C104.819 49.8979 104.983 49.9025 105.143 49.907C105.685 49.9222 106.193 49.9364 106.7 50.2428C106.701 49.6275 106.701 49.0123 106.701 48.397C106.7 47.446 106.7 46.4949 106.703 45.5439C107.508 45.7733 108.343 45.8355 109.176 45.8152C110.437 45.7615 111.662 45.4102 112.676 44.6428C113.449 44.0975 113.931 43.1741 114.19 42.2848C114.512 41.1248 114.485 39.8331 114.321 38.6495C114.179 37.6973 113.852 36.669 113.183 35.952C112.607 35.317 111.812 34.9683 110.996 34.7534ZM110.108 37.6469C109.623 37.3972 109.061 37.2871 108.521 37.2498C107.918 37.2589 107.303 37.3284 106.713 37.4529C106.665 37.7802 106.676 38.1028 106.688 38.4271C106.695 38.6094 106.701 38.7922 106.697 38.9766C106.704 40.0269 106.703 41.0772 106.703 42.1272C106.703 42.419 106.702 42.7108 106.702 43.0025C107.294 43.1637 107.908 43.2561 108.52 43.2673C109.261 43.2804 109.985 42.9829 110.544 42.5071C110.93 42.1158 111.148 41.5404 111.242 41.0069C111.354 40.2664 111.362 39.4931 111.07 38.7905C110.859 38.3187 110.578 37.892 110.108 37.6469Z" fill="white"/>
<path fill-rule="evenodd" clip-rule="evenodd" d="M88.7007 34.9689C87.8927 34.6995 87.0486 34.5475 86.1953 34.5494C85.1061 34.5245 84.0221 34.6241 83.0168 35.0704C82.2743 35.3568 81.632 35.8588 81.1582 36.4952C80.744 37.0909 80.4203 37.7358 80.2925 38.4554C80.2862 38.4916 80.2799 38.5281 80.2736 38.5646C80.1906 39.0435 80.1034 39.5466 80.1424 40.0276C80.2328 41.0454 80.3501 42.033 80.668 43.0101C80.9708 43.8936 81.6471 44.6263 82.4558 45.0765C83.2907 45.4927 84.2751 45.6552 85.1965 45.741C85.2648 45.7436 85.3328 45.7463 85.4005 45.7489C86.1792 45.7796 86.9279 45.8091 87.7026 45.6644C88.1286 45.6021 88.533 45.4664 88.9341 45.3131C89.9112 44.95 90.678 44.1865 91.1164 43.248C91.4027 42.6455 91.488 42.0305 91.5781 41.3809C91.5806 41.3628 91.5831 41.3447 91.5856 41.3265C91.6099 41.1265 91.6129 40.9281 91.6159 40.7291C91.6172 40.6483 91.6184 40.5675 91.621 40.4863C91.6232 40.4342 91.6257 40.3822 91.6282 40.3302C91.6393 40.0983 91.6503 39.868 91.6315 39.635C91.6206 39.5127 91.6122 39.3916 91.6039 39.2713C91.5788 38.908 91.5542 38.5516 91.4611 38.1893C91.2494 37.3976 90.965 36.6381 90.3601 36.0587C89.9007 35.5698 89.3292 35.2009 88.7007 34.9689ZM87.1868 37.4753C86.5753 37.2505 85.8839 37.2524 85.2456 37.3285C84.7134 37.4123 84.1046 37.6188 83.7291 38.0212C83.3444 38.4662 83.1858 39.1242 83.1714 39.6996C83.1615 40.252 83.2008 40.8019 83.3345 41.3393C83.4237 41.7777 83.6452 42.2037 83.9689 42.5137C84.3838 42.8748 84.9421 42.9816 85.4736 43.0301C86.2411 43.1055 87.0406 43.0779 87.715 42.6624C88.1672 42.4206 88.4169 41.9435 88.5669 41.473C88.7033 41.0736 88.6985 40.6828 88.6934 40.2753C88.6924 40.1934 88.6913 40.1108 88.6915 40.0272C88.6803 39.4309 88.5656 38.8587 88.2674 38.3377C87.9955 37.9596 87.639 37.6208 87.1868 37.4753Z" fill="white"/>
<path fill-rule="evenodd" clip-rule="evenodd" d="M154.896 34.5622C154.462 34.5502 154.029 34.5382 153.594 34.5522C153.474 34.5556 153.351 34.5551 153.228 34.5546C152.891 34.5533 152.547 34.552 152.23 34.6282C151.699 34.7514 151.217 34.9959 150.93 35.4776C150.614 36.0215 150.489 36.7693 150.598 37.386C151.36 37.1186 152.203 37.0249 153.004 36.9449C153.939 36.8814 154.917 36.9043 155.835 37.1081C156.149 37.1835 156.522 37.2975 156.754 37.5335C156.95 37.7255 157.014 38.0335 156.887 38.2812C156.767 38.5434 156.476 38.6567 156.222 38.7446C155.505 38.9277 154.808 38.9378 154.115 38.9479C153.358 38.9588 152.606 38.9697 151.838 39.2066C151.105 39.4576 150.408 39.9255 150.097 40.6602C149.785 41.4256 149.694 42.2992 149.757 43.1191C149.813 43.6493 149.988 44.1978 150.323 44.6199C150.575 44.9672 150.98 45.2202 151.353 45.422C151.725 45.6206 152.112 45.6773 152.519 45.7372C152.549 45.7415 152.579 45.7459 152.609 45.7504C152.932 45.7937 153.263 45.7901 153.593 45.7866C153.747 45.7849 153.901 45.7833 154.053 45.7864C154.316 45.7836 154.58 45.785 154.844 45.7864C155.368 45.7892 155.892 45.792 156.414 45.7615C156.875 45.7006 157.343 45.6127 157.783 45.4614C158.615 45.1389 159.346 44.4573 159.651 43.61C159.882 42.9756 160.002 42.2855 159.998 41.6098C159.998 41.3767 159.998 41.1436 159.998 40.9106C159.997 40.4447 159.997 39.9788 159.998 39.5126C160.008 38.7472 159.931 37.947 159.686 37.2182C159.47 36.5812 159.074 36.0261 158.576 35.5785C158.058 35.1558 157.468 34.9631 156.836 34.7803C156.34 34.6309 155.814 34.5824 155.298 34.5725C155.164 34.5696 155.03 34.5659 154.896 34.5622ZM156.591 40.8889C156.59 40.7366 156.588 40.5846 156.59 40.4333C156.302 40.8081 155.902 40.9575 155.479 41.1154C155.446 41.1276 155.413 41.1399 155.38 41.1523C155.027 41.2713 154.686 41.2817 154.343 41.2921C154.081 41.3 153.817 41.3081 153.548 41.3653C153.203 41.4282 152.808 41.5416 152.538 41.7749C152.197 42.0881 152.336 42.676 152.682 42.9277C152.99 43.164 153.42 43.2041 153.806 43.2399C153.851 43.2442 153.896 43.2483 153.939 43.2527C154.44 43.2737 154.948 43.2802 155.449 43.2507C155.778 43.2331 156.086 43.0967 156.31 42.8543C156.478 42.6168 156.52 42.271 156.555 41.9845C156.556 41.9713 156.558 41.9582 156.559 41.9453C156.6 41.5968 156.596 41.2422 156.591 40.8889Z" fill="white"/>
</g>
<defs>
<linearGradient id="paint0_linear_1534_34524" x1="26.9143" y1="41.1542" x2="31.0673" y2="5.85343" gradientUnits="userSpaceOnUse">
<stop stop-color="#8F8F8F"/>
<stop offset="0.502" stop-color="#8F8F8F"/>
<stop offset="1" stop-color="white"/>
</linearGradient>
<linearGradient id="paint1_linear_1534_34524" x1="26.9071" y1="39.0345" x2="31.0601" y2="74.3352" gradientUnits="userSpaceOnUse">
<stop stop-color="#8F8F8F"/>
<stop offset="0.502" stop-color="#8F8F8F"/>
<stop offset="1" stop-color="white"/>
</linearGradient>
<linearGradient id="paint2_linear_1534_34524" x1="1" y1="39.9925" x2="34.1249" y2="39.9925" gradientUnits="userSpaceOnUse">
<stop stop-color="#8F8F8F"/>
<stop offset="0.3686" stop-color="#C7C7C7"/>
<stop offset="0.6784" stop-color="white"/>
<stop offset="1" stop-color="white"/>
</linearGradient>
<clipPath id="clip0_1534_34524">
<rect width="160" height="80" fill="white"/>
</clipPath>
</defs>
</svg>
