<svg width="180" height="80" viewBox="0 0 180 80" fill="none" xmlns="http://www.w3.org/2000/svg">
<path d="M1.09791 16.5618C1.54499 16.4154 1.97229 16.1424 2.46289 16.1662C6.13056 16.1187 9.80613 16.2928 13.4659 16C13.3511 16.095 13.1217 16.2888 13.0109 16.3838C16.1602 16.8863 19.3294 18.2235 21.4065 20.728C23.1395 22.7735 23.8833 25.5153 23.816 28.1701C21.9644 28.0871 20.0969 28.3205 18.2651 28.0277C18.3759 25.5272 16.8882 22.9476 14.4194 22.2156C11.998 21.5233 9.43818 21.9506 6.95746 21.8714C6.94955 23.9684 6.96933 26.0653 6.94955 28.1622C4.99504 28.091 3.00889 28.3482 1.07812 27.9407C1.16121 24.1504 1.1256 20.3561 1.09791 16.5618Z" fill="white"/>
<path d="M40.7432 16.439C40.7353 16.352 40.7274 16.1779 40.7194 16.0909C42.4247 16.0474 44.1339 16.0078 45.8352 16.1344L45.7284 16.4311C49.123 16.7951 52.4346 18.4687 54.4564 21.2699C55.8847 23.2838 56.9252 25.6814 57.0083 28.174C55.2595 28.1225 53.5108 28.2175 51.7659 28.1344C51.1408 27.3946 51.2081 26.2234 50.6265 25.4124C49.2536 22.9633 46.3495 21.8278 43.6512 21.8396C41.0478 21.7328 38.1556 22.3777 36.4544 24.5024C35.5285 25.531 35.1804 26.896 34.7768 28.1858C32.9568 27.9959 31.0498 28.4628 29.2812 27.9405C29.8589 25.0167 30.9469 22.0889 33.119 19.9643C35.125 17.9267 37.9143 16.7279 40.7432 16.439Z" fill="white"/>
<path d="M63.2917 16.0312C65.0998 16.0589 66.9119 16.0471 68.72 16.0392C68.8664 20.0352 68.716 24.0392 68.7991 28.0431C66.9752 28.2845 65.1275 28.0946 63.2957 28.1856C63.1651 24.1381 63.1809 20.0787 63.2917 16.0312Z" fill="white"/>
<path d="M87.4824 16.0472C89.3024 16.0393 91.1303 16.067 92.9542 16.0195C93.0333 20.0749 93.0689 24.1422 92.9384 28.1936C91.1144 28.1303 89.2865 28.1739 87.4626 28.158C87.423 24.1224 87.3874 20.0828 87.4824 16.0472Z" fill="white"/>
<path d="M110.356 16.1512C111.646 16.0563 112.948 15.9811 114.241 16.0998C114.249 16.1987 114.261 16.4005 114.269 16.4994C117.367 16.6458 119.923 18.9287 121.668 21.3342C123.504 19.0197 125.897 17.0572 128.849 16.4282C130.178 15.6883 131.812 16.1591 133.264 16.1393L133.213 16.4479C135.606 16.7566 137.881 17.9277 139.468 19.7556C141.494 22.0701 142.594 25.1324 142.764 28.1829C140.952 28.1473 139.14 28.1591 137.327 28.175C137.047 25.9119 136.144 23.3876 133.905 22.3985C131.013 21.172 126.985 21.8327 125.395 24.7763C124.71 25.7417 124.714 26.988 124.315 28.0404C122.609 28.3609 120.781 28.0365 119.033 28.1987C118.586 26.5765 118.194 24.8397 116.991 23.5815C115.116 21.5202 111.832 21.3936 109.43 22.533C107.286 23.5419 106.32 25.9356 106.02 28.1552C104.168 28.0919 102.289 28.3451 100.461 28.0048C100.92 25.077 101.818 22.1018 103.856 19.8664C105.521 17.9633 107.911 16.7803 110.404 16.4479L110.356 16.1512Z" fill="white"/>
<path d="M149.513 16.0352C151.341 16.051 153.165 16.055 154.993 16.0312C155.08 20.0431 154.981 24.059 155.048 28.0708C153.177 28.2054 151.289 28.237 149.426 28.0431C149.521 24.0431 149.355 20.0352 149.513 16.0352Z" fill="white"/>
<path d="M161.359 16.0273C167.539 16.1144 173.727 15.9482 179.907 16.1104C180.01 17.9462 179.899 19.786 179.998 21.6218C177.818 22.0649 175.575 21.7524 173.367 21.8552C173.319 23.9047 173.45 25.9621 173.315 28.0115C171.531 28.3281 169.608 28.1619 167.78 28.0551C167.808 25.9977 167.78 23.9364 167.804 21.879C165.644 21.7128 163.416 22.061 161.296 21.7009C161.228 19.8097 161.201 17.9106 161.359 16.0273Z" fill="white"/>
<path d="M1.08203 29.7607C2.99697 29.2938 4.99895 29.6459 6.95345 29.547C6.97324 34.4135 6.93763 39.28 6.96928 44.1504C5.01478 44.1583 3.05236 44.2454 1.10181 44.0713C1.1216 39.2998 1.1572 34.5282 1.08203 29.7607Z" fill="white"/>
<path d="M18.2678 29.7852C20.1194 29.7298 21.9671 29.7417 23.8188 29.7694C23.8069 34.6437 23.8306 39.5181 23.8069 44.3886C21.9592 44.3925 20.1155 44.4004 18.2678 44.3807C18.2441 39.5142 18.2441 34.6477 18.2678 29.7852Z" fill="white"/>
<path d="M34.154 41.571C30.6526 38.7223 29.0304 34.022 29.3627 29.5907C31.2104 29.4958 33.0581 29.5512 34.9058 29.5512C34.8543 31.7708 35.0878 34.1486 36.5477 35.929C39.0245 39.209 43.9384 39.5453 47.4439 37.8598C50.4587 36.3603 51.9424 32.8311 51.5151 29.5749C53.3311 29.5077 55.1511 29.571 56.9711 29.5195C57.434 33.1278 56.3974 36.9221 54.1541 39.7906C52.1837 42.2752 49.1729 43.7866 46.0552 44.1862C41.976 44.7916 37.4656 44.1981 34.154 41.571Z" fill="white"/>
<path d="M63.1992 44.2691C63.2783 39.3591 63.1438 34.4452 63.2665 29.5352C65.0944 29.5549 66.9183 29.5233 68.7462 29.5589C68.8372 32.6568 68.7146 35.7587 68.8095 38.8606C72.6552 38.8329 76.497 38.821 80.3427 38.8645C80.2991 40.6766 80.3822 42.4887 80.3031 44.3008C77.3357 44.5144 74.3367 44.3285 71.3575 44.3918C68.6394 44.3245 65.9094 44.5342 63.1992 44.2691Z" fill="white"/>
<path d="M87.4565 29.5546C89.3161 29.5427 91.1756 29.5071 93.0391 29.5783C92.9402 34.52 93.1024 39.4695 92.956 44.4152C91.1242 44.3677 89.2923 44.3993 87.4605 44.3875C87.409 39.4419 87.4209 34.4962 87.4565 29.5546Z" fill="white"/>
<path d="M100.535 29.5699C102.347 29.6332 104.302 29.3127 106.023 29.7123C106.047 34.6105 106.098 39.5165 105.991 44.4146C104.175 44.3672 102.355 44.3988 100.539 44.387C100.527 39.4453 100.531 34.5076 100.535 29.5699Z" fill="white"/>
<path d="M118.872 29.5711C120.724 29.5117 122.575 29.5473 124.427 29.5513C124.427 34.4969 124.431 39.4425 124.423 44.3881C122.603 44.3209 120.751 44.5385 118.951 44.2892C118.777 39.3911 118.939 34.4771 118.872 29.5711Z" fill="white"/>
<path d="M137.195 44.2376C137.278 39.3316 137.152 34.4255 137.259 29.5234C139.087 29.5551 140.91 29.5511 142.734 29.5234C142.774 34.4849 142.802 39.4503 142.723 44.4117C140.883 44.3049 139.023 44.5541 137.195 44.2376Z" fill="white"/>
<path d="M149.434 44.2969C149.489 39.375 149.394 34.4492 149.481 29.5273C151.329 29.555 153.172 29.5353 155.02 29.5432C155.024 34.4927 155.04 39.4423 155.012 44.3919C153.153 44.3562 151.289 44.4829 149.434 44.2969Z" fill="white"/>
<path d="M167.8 29.5749C169.616 29.5037 171.428 29.567 173.244 29.5234C173.49 34.4334 173.359 39.379 173.315 44.293C171.495 44.5225 169.64 44.3326 167.808 44.384C167.776 39.4463 167.792 34.5126 167.8 29.5749Z" fill="white"/>
<path d="M40.2493 55.4699C41.6816 53.3334 44.6845 53.3572 46.825 54.3107C46.6272 54.9239 46.4056 55.5293 46.1722 56.1267C45.1949 55.7231 44.0871 55.1969 43.0228 55.644C41.9585 56.1742 41.5154 57.4402 41.5549 58.5678C41.4798 59.7508 41.7607 61.1277 42.8804 61.7528C44.0634 62.2474 45.3136 61.7212 46.4808 61.4561C46.4887 61.8834 46.5006 62.7419 46.5045 63.1692C46.1326 63.2958 45.7607 63.4224 45.3888 63.5411C45.3967 63.6203 45.4125 63.7825 45.4204 63.8616C44.3522 63.8656 43.1138 64.2573 42.1682 63.5847C39.0228 62.3898 38.6588 58.0298 40.2493 55.4699Z" fill="white"/>
<path d="M72.1953 63.5363C72.318 60.2762 72.1518 57.0121 72.2863 53.752C72.9747 53.7638 73.6632 53.7638 74.3556 53.7599C74.4703 57.02 74.3239 60.2801 74.4347 63.5403C73.6869 63.5522 72.9431 63.5522 72.1953 63.5363Z" fill="white"/>
<path d="M99.6448 53.7695C102.11 53.7854 104.579 53.7814 107.047 53.7735C107.051 54.3867 107.059 54.996 107.063 55.6133C106.165 55.6053 105.271 55.6014 104.373 55.5974C104.401 58.2483 104.357 60.9031 104.404 63.5539C103.688 63.5539 102.972 63.55 102.26 63.5381C102.355 60.8952 102.272 58.2483 102.312 55.6053C101.413 55.6014 100.515 55.6093 99.6211 55.6133C99.6251 55 99.633 54.3828 99.6448 53.7695Z" fill="white"/>
<path d="M130.957 53.7757C131.709 53.7717 132.464 53.7678 133.22 53.752C133.984 55.0299 134.597 56.3909 135.266 57.7243C136.037 56.4384 136.623 55.0576 137.37 53.7599C138.122 53.7717 138.878 53.7717 139.638 53.7757C138.585 55.8133 137.378 57.7717 136.389 59.841C136.286 61.0794 136.377 62.3217 136.366 63.5601C135.645 63.5561 134.929 63.5522 134.209 63.5443C134.201 62.4008 134.189 61.2574 134.312 60.1219C133.283 57.9616 132.073 55.8924 130.957 53.7757Z" fill="white"/>
</svg>
