<svg version="1.2" xmlns="http://www.w3.org/2000/svg" viewBox="0 0 176 32" width="176" height="32"><style>tspan{white-space:pre}.a{fill:#3c50e0}.b{font-size: 30px;fill: #ffffff;font-weight: 400;font-family: "Virgo01", "Virgo 01"}.c{fill:#fff}</style><path class="a" d="m0 8.4c0-4.6 3.8-8.4 8.4-8.4h15.2c4.6 0 8.4 3.8 8.4 8.4v15.2c0 4.6-3.8 8.4-8.4 8.4h-15.2c-4.6 0-8.4-3.8-8.4-8.4z"/><text style="transform:matrix(1,0,0,1,36.975,28.244)" ><tspan x="0" y="0" class="b"> </tspan><tspan  y="0" class="b">GAMBOL</tspan><tspan  y="0" class="b">
</tspan></text><path class="c" d="m8.4 8.4c0-0.9 0.8-1.7 1.7-1.7 0.9 0 1.7 0.8 1.7 1.7v15.2c0 0.9-0.8 1.7-1.7 1.7-0.9 0-1.7-0.8-1.7-1.7z"/><g style="opacity:.9"><path class="c" d="m14.7 15.2c0-1 0.8-1.7 1.7-1.7 1 0 1.7 0.7 1.7 1.7v8.4c0 0.9-0.7 1.7-1.7 1.7-0.9 0-1.7-0.8-1.7-1.7z"/></g><g style="opacity:.7"><path class="c" d="m21.1 10.9c0-0.9 0.7-1.6 1.6-1.6 1 0 1.7 0.7 1.7 1.6v12.7c0 0.9-0.7 1.7-1.7 1.7-0.9 0-1.6-0.8-1.6-1.7z"/></g></svg>