<?xml version="1.0" encoding="utf-8"?>
<svg xmlns="http://www.w3.org/2000/svg" width="160" height="40" fill="none">
  <path d="M57.987 38.823c-2.63-.579-4.45-2.438-5.063-5.208-.324-1.456-.108-5.454.36-6.734.631-1.718 1.514-2.7 3.172-3.507l1.441-.701 5.28-.053 5.26-.053v2.823H64.33c-4.81 0-5.64.14-6.486 1.158-.793.93-1.027 1.964-1.027 4.366 0 4.261 1.027 5.173 5.766 5.173h2.072V32.23H59.969v-2.98h8.468l-.036 4.874-.054 4.858-4.684.035c-3.153.017-5.01-.053-5.676-.193z" fill="url(#a)"/>
  <path d="M68.829 38.972c0-.035.378-.93.829-1.983.45-1.036 1.009-2.335 1.243-2.861.216-.527 1.405-3.248 2.612-6.056 1.208-2.791 2.235-5.196 2.289-5.319.072-.158.594-.21 2.072-.175l1.964.052.955 2.195c1.026 2.334 4.072 9.32 5.315 12.146.396.948.739 1.808.739 1.896 0 .123-.685.176-1.928.14l-1.946-.052-.721-1.755c-.396-.966-.793-1.861-.865-1.984-.108-.158-1.063-.21-3.64-.21-4.053 0-3.53-.264-4.504 2.334l-.594 1.615-1.91.053c-1.045.017-1.91.017-1.91-.036zm11.35-6.898c0-.369-2.413-6.02-2.522-5.898-.126.14-2.342 5.758-2.342 5.933 0 .053 1.1.088 2.433.088 1.333 0 2.432-.053 2.432-.123z" fill="url(#b)"/>
  <path d="M87.754 38.879c-.07-.053-.124-3.755-.124-8.208v-8.086h5.232l2.022 5.99c1.1 3.283 2.075 6.042 2.146 6.13.09.07 1.065-2.602 2.2-5.938l2.039-6.095 2.59-.052 2.572-.053v16.434h-3.406l.107-6.148.106-6.164-2.093 6.112-2.075 6.112-1.898.053-1.88.052-1.525-4.505c-.834-2.48-1.81-5.292-2.146-6.252L91 26.514l.124 6.252.106 6.235h-1.685c-.922 0-1.738-.053-1.791-.122z" fill="url(#c)"/>
  <path d="M114.389 38.826c-3.299-.56-5.216-3.462-5.216-7.85.017-4.318 1.295-6.748 4.128-7.902.898-.367 1.295-.402 5.078-.454l4.094-.053v2.815h-2.937c-3.316 0-4.439.175-5.216.84-.639.541-1.157 1.642-1.175 2.447v.56H122.49l-.052 1.45-.052 1.434-4.715.052-4.733.035.121.752c.173 1.154.795 2.255 1.468 2.657.536.315 1.002.367 4.232.437l3.627.088.052 1.45.052 1.434-3.593-.017c-1.969-.018-4.007-.088-4.508-.175z" fill="url(#d)"/>
  <path d="M125.134 37.532v-1.486h4.935c5.147 0 5.553-.052 6.152-.769.247-.297.299-1.434.106-2.046-.23-.681-1.093-.856-4.195-.856-1.587 0-3.349-.087-3.913-.192-2.503-.455-3.596-1.679-3.755-4.196-.141-2.483.653-4.091 2.468-4.895.917-.402 1.058-.42 6.715-.472l5.782-.053-.053 1.451-.053 1.451-5.076.088-5.094.087-.511.577c-.811.892-.688 2.343.247 2.867.264.158 1.639.262 4.353.332 3.684.088 4.019.123 4.812.49 1.498.717 2.062 1.853 2.062 4.09 0 1.68-.229 2.518-.916 3.357-1.217 1.434-2.398 1.661-8.99 1.661h-5.076v-1.486z" fill="url(#e)"/>
  <path d="M53.07 8.808V.591l5.779.053c6.335.052 6.387.07 7.55 1.206.833.822 1.145 1.66 1.145 3.042-.017 1.468-.416 2.378-1.458 3.287l-.694.594.694.472c1.042.7 1.476 1.643 1.476 3.34 0 2.43-.868 3.6-3.124 4.195-.816.21-2.1.262-6.197.262H53.07V8.808zm9.805 5c.677-.28.955-.804.955-1.818 0-1.451-.955-1.8-4.6-1.731l-2.603.053-.052 1.643c-.017.909-.017 1.748.035 1.888.139.35 5.45.315 6.265-.035zm-.104-6.748c1.458-.507 1.371-2.867-.121-3.304-.382-.123-1.736-.175-3.333-.14l-2.69.052-.052 1.539c-.035.856-.017 1.66.035 1.8.07.193.625.245 2.846.245 1.58 0 3.003-.087 3.315-.192z" fill="url(#f)"/>
  <path fill-rule="evenodd" clip-rule="evenodd" d="M10.47 2.493 1.31 11.724c-.23.231-.327.495-.327.791 0 .297.098.594.327.825l9.162 9.231c.196.198.49.33.785.33.295 0 .59-.132.818-.33l9.162-9.231a1.15 1.15 0 0 0 .328-.825c0-.296-.099-.56-.328-.79l-9.162-9.232a1.131 1.131 0 0 0-.818-.33 1.06 1.06 0 0 0-.785.33zm2.291-.725 3.665 3.725c2.814-2.209 4.908-3.495 4.908-3.495l.197-.131.163.131c.066.033 19.666 12.397 19.666 24.2 0 2.9-1.145 5.505-2.945 7.385-1.832 1.912-4.352 3.066-7.133 3.066a10.69 10.69 0 0 1-5.76-1.682 10.007 10.007 0 0 1-3.14-3.066c.883 6.726 8.016 7.121 8.834 7.121h.066v.66H11.78v-.66h.065c.818 0 7.919-.395 8.835-7.12a10.75 10.75 0 0 1-3.141 3.065 10.773 10.773 0 0 1-5.76 1.682c-2.78 0-5.3-1.154-7.133-3.066-1.832-1.88-2.944-4.484-2.944-7.385 0-1.451.294-2.935.818-4.418.458-1.319 1.145-2.605 1.93-3.89L.59 14.031A2.21 2.21 0 0 1 0 12.515c0-.527.196-1.088.589-1.483l9.195-9.264a2.098 2.098 0 0 1 1.472-.594c.556 0 1.08.198 1.505.594z" fill="url(#g)"/>
  <path d="M74.363 16.867c-1.78-.349-3.543-1.71-4.398-3.405-.587-1.152-.837-2.55-.837-4.61.018-4 1.211-6.34 3.9-7.597l1.174-.541L78.53.66l4.308-.07v2.777l-3.507.087c-3.116.07-3.614.123-4.237.437-.392.21-.855.506-1.015.698-.374.402-.855 1.677-.855 2.253v.42h9.614V10.143l-3.774-.052c-2.083-.018-4.255 0-4.807.07l-1.033.104v.716c0 .996.606 2.13 1.389 2.602.623.385.855.402 4.451.454l3.774.053v2.951l-3.863-.017c-2.136-.018-4.22-.088-4.611-.157z" fill="url(#h)"/>
  <path d="M89.842 16.867c-1.607-.332-3.04-1.486-3.756-3.06-.385-.856-.402-1.03-.454-7.027L85.579.609h3.494l.053 5.821c.052 5.472.07 5.84.402 6.416.681 1.137 1.205 1.312 4.507 1.364l2.918.07v1.241l.017 1.259.437-1.049c.245-.577 1.345-3.164 2.446-5.77 1.1-2.587 2.446-5.768 2.987-7.045l.996-2.325 1.922.053 1.904.052 1.083 2.535c.594 1.399 2.132 5 3.425 8.024 1.292 3.025 2.376 5.577 2.393 5.647.035.07-.821.14-1.922.14h-1.974l-.716-1.888-.716-1.87-3.582-.053-3.599-.035-.681 1.87-.699 1.889-5.05.017c-2.777.018-5.38-.035-5.782-.105zm16.842-6.765 1.258-.088-.315-.821c-1.887-4.86-1.991-5.105-2.149-4.843-.087.14-.611 1.486-1.17 2.972-.664 1.766-.961 2.745-.821 2.797.262.105 1.694.105 3.197-.017z" fill="url(#i)"/>
  <path d="M117.312 10.312V3.58l-2.683-.053-2.701-.052-.053-1.434-.053-1.45h14.493V1.99c0 .996-.071 1.398-.212 1.416-.124.017-.388.035-.583.052a66.05 66.05 0 0 1-2.418.07l-2.083.035-.035 6.696-.053 6.678-1.801.053-1.818.052v-6.73z" fill="url(#j)"/>
  <path d="M127.882 8.808V.591h5.086c5.452 0 6.198.088 7.431.91.347.244.781.804 1.076 1.345.417.84.469 1.154.469 2.57 0 1.19-.087 1.819-.33 2.378-.382.91-1.562 2.028-2.274 2.185-.295.053-.521.123-.521.175 0 .158 3.733 6.346 3.837 6.346.052 0 1.146-2.5 2.413-5.542 1.285-3.06 2.778-6.626 3.334-7.92l1.007-2.36 1.892-.052c1.406-.035 1.91.018 1.979.175.052.122 1.58 3.759 3.403 8.077 1.823 4.3 3.316 7.902 3.316 7.99 0 .087-.833.157-1.875.157h-1.858l-.781-1.94-.781-1.941h-3.455c-1.892.017-3.507.07-3.577.157-.069.07-.243.49-.399.926-.156.438-.451 1.242-.642 1.801l-.365.997h-7.396L137.1 13.79l-1.788-3.235h-3.958l-.035 3.2-.052 3.181-1.684.053-1.701.052V8.808zm25.451 1.241c.139-.07-.191-1.101-.989-3.077-1.129-2.884-1.181-2.954-1.372-2.447-.121.297-.503 1.311-.868 2.273-.365.961-.799 2.045-.937 2.395-.157.367-.278.681-.278.734 0 .192 4.132.315 4.444.122zm-16.337-2.64c1.32-.297 1.875-1.678 1.216-2.954-.382-.752-1.042-.892-4.098-.892h-2.76v4.021h2.482c1.355 0 2.778-.087 3.16-.175z" fill="url(#k)"/>
  <defs>
    <linearGradient id="a" x1="60.603" y1="22.567" x2="60.603" y2="39.018" gradientUnits="userSpaceOnUse">
      <stop stop-color="#2998FF"/>
      <stop offset="1" stop-color="#4AB3FF"/>
    </linearGradient>
    <linearGradient id="b" x1="77.838" y1="22.567" x2="77.838" y2="39.018" gradientUnits="userSpaceOnUse">
      <stop stop-color="#2998FF"/>
      <stop offset="1" stop-color="#4AB3FF"/>
    </linearGradient>
    <linearGradient id="c" x1="97.03" y1="22.567" x2="97.03" y2="39.018" gradientUnits="userSpaceOnUse">
      <stop stop-color="#2998FF"/>
      <stop offset="1" stop-color="#4AB3FF"/>
    </linearGradient>
    <linearGradient id="d" x1="115.831" y1="22.567" x2="115.831" y2="39.018" gradientUnits="userSpaceOnUse">
      <stop stop-color="#2998FF"/>
      <stop offset="1" stop-color="#4AB3FF"/>
    </linearGradient>
    <linearGradient id="e" x1="132.282" y1="22.567" x2="132.282" y2="39.018" gradientUnits="userSpaceOnUse">
      <stop stop-color="#2998FF"/>
      <stop offset="1" stop-color="#4AB3FF"/>
    </linearGradient>
    <linearGradient id="f" x1="60.315" y1=".591" x2="60.315" y2="17.042" gradientUnits="userSpaceOnUse">
      <stop stop-color="#2998FF"/>
      <stop offset="1" stop-color="#4AB3FF"/>
    </linearGradient>
    <linearGradient id="g" x1="20.68" y1="1.174" x2="20.68" y2="39.682" gradientUnits="userSpaceOnUse">
      <stop stop-color="#2998FF"/>
      <stop offset="1" stop-color="#4AB3FF"/>
    </linearGradient>
    <linearGradient id="h" x1="75.983" y1=".591" x2="75.983" y2="17.042" gradientUnits="userSpaceOnUse">
      <stop stop-color="#2998FF"/>
      <stop offset="1" stop-color="#4AB3FF"/>
    </linearGradient>
    <linearGradient id="i" x1="100.072" y1=".591" x2="100.072" y2="17.042" gradientUnits="userSpaceOnUse">
      <stop stop-color="#2998FF"/>
      <stop offset="1" stop-color="#4AB3FF"/>
    </linearGradient>
    <linearGradient id="j" x1="119.069" y1=".591" x2="119.069" y2="17.042" gradientUnits="userSpaceOnUse">
      <stop stop-color="#2998FF"/>
      <stop offset="1" stop-color="#4AB3FF"/>
    </linearGradient>
    <linearGradient id="k" x1="143.941" y1=".591" x2="143.941" y2="17.042" gradientUnits="userSpaceOnUse">
      <stop stop-color="#2998FF"/>
      <stop offset="1" stop-color="#4AB3FF"/>
    </linearGradient>
  </defs>
</svg>