<svg version="1.2" xmlns="http://www.w3.org/2000/svg" viewBox="0 0 120 80" width="120" height="80"><style>.a{fill:#fff}</style><path fill-rule="evenodd" class="a" d="m0.2 47.1v-2.5h6.5v2.9q0 4 3.1 4 3 0 3-4 0-2.2-1.3-4.2-1.3-2-3.1-3.6l-3.3-3.4q-2-1.8-3.4-4.4-1.4-2.6-1.4-5.8 0-4.9 2.6-7.5 2.6-2.6 7-2.6 4.5 0 6.8 2.6 2.4 2.6 2.4 7.5v1.3h-6v-1.7q0-3.9-3.2-3.9-3.2 0-3.2 3.9 0 1.7 0.7 3.2 0.7 1.5 1.8 2.7 1.1 1.2 2.4 2.4 1.4 1.2 2.7 2.5 1.3 1.3 2.4 2.8 1.1 1.4 1.8 3.4 0.7 2.1 0.7 4.4 0 4.9-2.5 7.5-2.4 2.6-6.8 2.6-4.5 0-7.1-2.6-2.6-2.6-2.6-7.5z"/><path fill-rule="evenodd" class="a" d="m22.8 56.8v-40.3h9.3q9.5 0 9.5 9.9v5.3q0 9.9-9.4 9.9h-3.1v15.2zm6.4-20.9h3q1.6 0 2.4-0.9 0.7-0.9 0.7-2.9v-6.1q0-2.1-0.7-2.9-0.8-0.9-2.4-0.9h-3z"/><path fill-rule="evenodd" class="a" d="m44.6 56.8v-40.4h9.6q4.9 0 7.2 2.3 2.2 2.3 2.2 7v3.2q0 6.2-4.1 8.2 4.2 1.8 4.2 8.6v6.4q0 3.1 0.7 4.7h-6.5q-0.6-1.7-0.6-5v-6.3q0-2.7-1-3.9-0.9-1.2-3.1-1.2h-2.2v16.4zm6.3-22.2h2.5q1.9 0 2.9-1 0.9-1 0.9-3.3v-3.9q0-4.2-3.2-4.2h-3.1z"/><path fill-rule="evenodd" class="a" d="m67.9 56.8h6.3v-40.4h-6.3z"/><path fill-rule="evenodd" class="a" d="m78.8 56.8v-40.3h9.7q4.9 0 7.1 2.2 2.3 2.3 2.3 7v1.5q0 6.2-4.1 8.1 4.7 1.8 4.7 8.6v3.3q0 4.7-2.4 7.1-2.5 2.5-7.2 2.5zm6.3-23.9h2.5q1.9 0 2.9-1 0.9-1 0.9-3.3v-2.2q0.1-4.2-3.2-4.2h-3.1zm0 18.2h3.7q1.6 0 2.4-0.9 0.9-0.9 0.9-3.1v-3.5q0-2.8-1-3.9-0.9-1-3.1-1h-2.9z"/><path fill-rule="evenodd" class="a" d="m102.3 56.8v-40.4h17.4v5.8h-11v11.2h8.7v5.8h-8.7v11.8h11v5.8z"/><path fill-rule="evenodd" class="a" d="m0 65h119.8v-5.6h-119.8z"/><path fill-rule="evenodd" class="a" d="m0.2 47.1v-2.5h6.5v2.9q0 4 3.1 4 3 0 3-4 0-2.2-1.3-4.2-1.3-2-3.1-3.6l-3.3-3.4q-2-1.8-3.4-4.4-1.4-2.6-1.4-5.8 0-4.9 2.6-7.5 2.6-2.6 7-2.6 4.5 0 6.8 2.6 2.4 2.6 2.4 7.5v1.3h-6v-1.7q0-3.9-3.2-3.9-3.2 0-3.2 3.9 0 1.7 0.7 3.2 0.7 1.5 1.8 2.7 1.1 1.2 2.4 2.4 1.4 1.2 2.7 2.5 1.3 1.3 2.4 2.8 1.1 1.4 1.8 3.4 0.7 2.1 0.7 4.4 0 4.9-2.5 7.5-2.4 2.6-6.8 2.6-4.5 0-7.1-2.6-2.6-2.6-2.6-7.5z"/><path fill-rule="evenodd" class="a" d="m22.8 56.8v-40.3h9.3q9.5 0 9.5 9.9v5.3q0 9.9-9.4 9.9h-3.1v15.2zm6.4-20.9h3q1.6 0 2.4-0.9 0.7-0.9 0.7-2.9v-6.1q0-2.1-0.7-2.9-0.8-0.9-2.4-0.9h-3z"/><path fill-rule="evenodd" class="a" d="m44.6 56.8v-40.4h9.6q4.9 0 7.2 2.3 2.2 2.3 2.2 7v3.2q0 6.2-4.1 8.2 4.2 1.8 4.2 8.6v6.4q0 3.1 0.7 4.7h-6.5q-0.6-1.7-0.6-5v-6.3q0-2.7-1-3.9-0.9-1.2-3.1-1.2h-2.2v16.4zm6.3-22.2h2.5q1.9 0 2.9-1 0.9-1 0.9-3.3v-3.9q0-4.2-3.2-4.2h-3.1z"/><path fill-rule="evenodd" class="a" d="m67.9 56.8h6.3v-40.4h-6.3z"/><path fill-rule="evenodd" class="a" d="m78.8 56.8v-40.3h9.7q4.9 0 7.1 2.2 2.3 2.3 2.3 7v1.5q0 6.2-4.1 8.1 4.7 1.8 4.7 8.6v3.3q0 4.7-2.4 7.1-2.5 2.5-7.2 2.5zm6.3-23.9h2.5q1.9 0 2.9-1 0.9-1 0.9-3.3v-2.2q0.1-4.2-3.2-4.2h-3.1zm0 18.2h3.7q1.6 0 2.4-0.9 0.9-0.9 0.9-3.1v-3.5q0-2.8-1-3.9-0.9-1-3.1-1h-2.9z"/><path fill-rule="evenodd" class="a" d="m102.3 56.8v-40.4h17.4v5.8h-11v11.2h8.7v5.8h-8.7v11.8h11v5.8z"/><path fill-rule="evenodd" class="a" d="m0 65h119.8v-5.6h-119.8z"/><path fill-rule="evenodd" class="a" d="m0.2 47.1v-2.5h6.5v2.9q0 4 3.1 4 3 0 3-4 0-2.2-1.3-4.2-1.3-2-3.1-3.6l-3.3-3.4q-2-1.8-3.4-4.4-1.4-2.6-1.4-5.8 0-4.9 2.6-7.5 2.6-2.6 7-2.6 4.5 0 6.8 2.6 2.4 2.6 2.4 7.5v1.3h-6v-1.7q0-3.9-3.2-3.9-3.2 0-3.2 3.9 0 1.7 0.7 3.2 0.7 1.5 1.8 2.7 1.1 1.2 2.4 2.4 1.4 1.2 2.7 2.5 1.3 1.3 2.4 2.8 1.1 1.4 1.8 3.4 0.7 2.1 0.7 4.4 0 4.9-2.5 7.5-2.4 2.6-6.8 2.6-4.5 0-7.1-2.6-2.6-2.6-2.6-7.5z"/><path fill-rule="evenodd" class="a" d="m22.8 56.8v-40.3h9.3q9.5 0 9.5 9.9v5.3q0 9.9-9.4 9.9h-3.1v15.2zm6.4-20.9h3q1.6 0 2.4-0.9 0.7-0.9 0.7-2.9v-6.1q0-2.1-0.7-2.9-0.8-0.9-2.4-0.9h-3z"/><path fill-rule="evenodd" class="a" d="m44.6 56.8v-40.4h9.6q4.9 0 7.2 2.3 2.2 2.3 2.2 7v3.2q0 6.2-4.1 8.2 4.2 1.8 4.2 8.6v6.4q0 3.1 0.7 4.7h-6.5q-0.6-1.7-0.6-5v-6.3q0-2.7-1-3.9-0.9-1.2-3.1-1.2h-2.2v16.4zm6.3-22.2h2.5q1.9 0 2.9-1 0.9-1 0.9-3.3v-3.9q0-4.2-3.2-4.2h-3.1z"/><path fill-rule="evenodd" class="a" d="m67.9 56.8h6.3v-40.4h-6.3z"/><path fill-rule="evenodd" class="a" d="m78.8 56.8v-40.3h9.7q4.9 0 7.1 2.2 2.3 2.3 2.3 7v1.5q0 6.2-4.1 8.1 4.7 1.8 4.7 8.6v3.3q0 4.7-2.4 7.1-2.5 2.5-7.2 2.5zm6.3-23.9h2.5q1.9 0 2.9-1 0.9-1 0.9-3.3v-2.2q0.1-4.2-3.2-4.2h-3.1zm0 18.2h3.7q1.6 0 2.4-0.9 0.9-0.9 0.9-3.1v-3.5q0-2.8-1-3.9-0.9-1-3.1-1h-2.9z"/><path fill-rule="evenodd" class="a" d="m102.3 56.8v-40.4h17.4v5.8h-11v11.2h8.7v5.8h-8.7v11.8h11v5.8z"/><path fill-rule="evenodd" class="a" d="m0 65h119.8v-5.6h-119.8z"/></svg>