<svg width="80" height="80" viewBox="0 0 80 80" fill="none" xmlns="http://www.w3.org/2000/svg">
<path d="M16.0897 70.335L11.2992 70.4843C11.2578 70.4857 11.2171 70.4953 11.1796 70.5127C11.142 70.5301 11.1083 70.5548 11.0805 70.5854C11.0526 70.616 11.0312 70.6519 11.0175 70.691C11.0038 70.73 10.998 70.7714 11.0006 70.8127L11.0874 72.1155C11.0923 72.194 11.1271 72.2676 11.1847 72.3212C11.2423 72.3747 11.3182 72.4041 11.3969 72.4033L12.6997 72.387L12.9928 78.5157C12.9975 78.5979 13.0346 78.675 13.096 78.7301C13.1266 78.7571 13.1623 78.7777 13.2009 78.7908C13.2396 78.8038 13.2805 78.809 13.3212 78.8061L14.8005 78.7111C14.878 78.7022 14.9492 78.6642 14.9996 78.6047C15.05 78.5452 15.0759 78.4687 15.0719 78.3908L14.9009 72.3544L16.1902 72.3381C16.2319 72.3375 16.273 72.3283 16.3111 72.3113C16.3491 72.2942 16.3833 72.2695 16.4115 72.2388C16.4397 72.208 16.4614 72.1719 16.4751 72.1325C16.4888 72.0931 16.4944 72.0513 16.4914 72.0097L16.3992 70.62C16.393 70.5423 16.3577 70.4697 16.3003 70.4168C16.243 70.364 16.1677 70.3348 16.0897 70.335ZM21.6702 70.734L20.2289 70.6526C20.1497 70.6511 20.073 70.6806 20.0151 70.7349C19.9573 70.7891 19.923 70.8638 19.9195 70.943L19.8978 74.1403L19.2681 74.2761L19.1079 70.6499C19.1045 70.5714 19.071 70.4972 19.0144 70.4426C18.9579 70.3881 18.8825 70.3574 18.804 70.3567L17.3763 70.392C17.3349 70.3919 17.2939 70.4 17.2557 70.4158C17.2175 70.4317 17.1828 70.4549 17.1537 70.4843C17.1247 70.5136 17.1019 70.5483 17.0865 70.5865C17.0711 70.6248 17.0635 70.6657 17.0641 70.7069L17.3356 78.7681C17.337 78.848 17.3695 78.9242 17.4263 78.9805C17.4831 79.0368 17.5596 79.0687 17.6396 79.0694L19.0672 79.0341C19.1081 79.0348 19.1486 79.0273 19.1865 79.012C19.2244 78.9967 19.2588 78.974 19.2877 78.9451C19.3165 78.9162 19.3393 78.8818 19.3546 78.8439C19.3699 78.8061 19.3774 78.7655 19.3767 78.7246L19.2192 76.024L19.7811 76.062L19.8788 78.4777C19.8749 78.5199 19.8799 78.5625 19.8934 78.6027C19.907 78.6429 19.9288 78.6798 19.9575 78.7111C19.9859 78.7409 20.02 78.7646 20.0578 78.7809C20.0955 78.7972 20.1362 78.8058 20.1773 78.8061L21.6675 78.9092H21.6865C21.7636 78.9059 21.8366 78.8735 21.8909 78.8187C21.9453 78.7638 21.9769 78.6905 21.9796 78.6134V71.057C21.9809 71.0162 21.9742 70.9755 21.9598 70.9373C21.9453 70.8991 21.9235 70.8641 21.8954 70.8344C21.8669 70.803 21.8321 70.7779 21.7933 70.7606C21.7546 70.7433 21.7126 70.7342 21.6702 70.734ZM27.0416 70.0554L25.7225 70.1559C25.6479 70.1645 25.579 70.2002 25.529 70.2563C25.479 70.3123 25.4512 70.3848 25.4511 70.4599C25.4511 70.4599 25.4511 75.5029 25.4511 76.1597C25.4511 76.5506 25.4918 77.2074 25.0656 77.2264C24.7725 77.2264 24.6667 76.8057 24.6612 76.1977C24.6612 75.511 24.7128 70.8209 24.7128 70.7693C24.714 70.6932 24.6869 70.6195 24.6367 70.5623C24.5865 70.5051 24.5169 70.4686 24.4414 70.4599L22.9214 70.297C22.8783 70.2924 22.8346 70.297 22.7934 70.3105C22.7521 70.324 22.7142 70.3461 22.6821 70.3754C22.6501 70.4046 22.6246 70.4403 22.6073 70.4802C22.5901 70.52 22.5815 70.563 22.5821 70.6064C22.5821 70.6064 22.6391 76.518 22.6446 76.7243C22.651 77.0127 22.7155 77.2968 22.8342 77.5597C22.9529 77.8227 23.1233 78.059 23.3354 78.2545C23.5474 78.4501 23.7967 78.6009 24.0683 78.698C24.34 78.7951 24.6284 78.8365 24.9164 78.8196C26.781 78.7681 27.1176 77.6607 27.2316 76.3769C27.2804 75.834 27.3673 70.9104 27.3727 70.3649C27.3728 70.3223 27.3642 70.2803 27.3473 70.2412C27.3304 70.2022 27.3056 70.1671 27.2746 70.138C27.2435 70.109 27.2068 70.0867 27.1667 70.0725C27.1266 70.0583 27.084 70.0525 27.0416 70.0554ZM32.8364 70.3784L31.4793 70.4436C31.4385 70.4457 31.3986 70.4558 31.3618 70.4735C31.325 70.4913 31.2921 70.5161 31.2651 70.5467C31.238 70.5773 31.2173 70.613 31.2043 70.6517C31.1912 70.6904 31.186 70.7313 31.1889 70.772L31.4142 74.5719L29.9947 70.6607C29.9705 70.5971 29.926 70.5431 29.8681 70.5073C29.8102 70.4715 29.7421 70.4558 29.6744 70.4626L28.3037 70.6146C28.2281 70.6233 28.1585 70.6598 28.1084 70.717C28.0582 70.7742 28.0311 70.848 28.0323 70.924L28.2576 78.3881C28.2577 78.4632 28.2855 78.5356 28.3355 78.5917C28.3855 78.6477 28.4544 78.6834 28.529 78.6921L29.9051 78.7925C29.9486 78.7957 29.9922 78.7895 30.0331 78.7745C30.074 78.7594 30.1113 78.7358 30.1423 78.7053C30.1734 78.6747 30.1976 78.6379 30.2133 78.5972C30.2291 78.5566 30.2359 78.513 30.2335 78.4695L30.0191 75.2125L31.2052 78.6052C31.2261 78.6614 31.2629 78.7103 31.3111 78.7459C31.3593 78.7816 31.4168 78.8025 31.4766 78.8061H32.9559C32.9983 78.8055 33.0402 78.7962 33.0789 78.7786C33.1175 78.761 33.1521 78.7356 33.1804 78.704C33.2087 78.6723 33.2302 78.6352 33.2434 78.5948C33.2566 78.5544 33.2613 78.5118 33.2571 78.4695L33.1703 70.6824C33.1694 70.6412 33.1602 70.6005 33.1435 70.5627C33.1267 70.525 33.1026 70.4909 33.0726 70.4626C33.0415 70.4326 33.0043 70.4096 32.9636 70.395C32.9229 70.3805 32.8795 70.3749 32.8364 70.3784ZM34.6685 70.221H34.3754C34.2973 70.223 34.2229 70.2548 34.1675 70.3098C34.112 70.3647 34.0796 70.4388 34.0768 70.5169L33.8298 78.2714C33.8273 78.3484 33.8538 78.4235 33.9041 78.4818C33.9544 78.5401 34.0248 78.5774 34.1013 78.5862C34.1013 78.5862 34.2831 78.5998 34.5545 78.5998C35.5181 78.5998 37.8116 78.4261 38.3544 76.8084C38.7969 75.4513 38.7263 73.6274 38.6259 72.7534C38.3979 71.0489 37.1059 70.221 34.6685 70.221ZM36.7178 75.3292C36.5522 76.6401 36.1451 76.7216 35.6945 76.8763L35.9062 72.007C36.029 72.0203 36.1473 72.0608 36.2525 72.1256C36.3577 72.1904 36.4471 72.2778 36.5142 72.3815C36.8806 72.8728 36.8779 74.0481 36.7178 75.3265V75.3292ZM43.107 77.2291L41.3102 77.3703L41.2261 75.6902L42.3905 75.6277C42.4623 75.6231 42.5301 75.5934 42.5822 75.5438C42.6343 75.4941 42.6673 75.4278 42.6755 75.3563L42.784 74.3249C42.789 74.2807 42.7843 74.236 42.7702 74.1938C42.7561 74.1516 42.7331 74.113 42.7026 74.0806C42.6714 74.0485 42.6337 74.0235 42.5921 74.0071C42.5504 73.9907 42.5057 73.9834 42.461 73.9856L41.1989 74.0508V72.2295H43.0663C43.1069 72.2303 43.1473 72.2228 43.1849 72.2077C43.2226 72.1926 43.2569 72.1701 43.2858 72.1415C43.3146 72.1129 43.3374 72.0788 43.3529 72.0413C43.3683 72.0037 43.3761 71.9634 43.3757 71.9228C43.3783 71.9003 43.3783 71.8775 43.3757 71.855L43.2726 70.7693C43.2632 70.693 43.2257 70.623 43.1675 70.5728C43.1093 70.5227 43.0346 70.4959 42.9577 70.4979L39.5433 70.582C39.4629 70.5841 39.3865 70.6178 39.3307 70.6756C39.2748 70.7335 39.244 70.811 39.2447 70.8914L39.3533 78.5618C39.354 78.6427 39.3866 78.72 39.4441 78.7769C39.5015 78.8339 39.5791 78.8658 39.66 78.8658H43.1124C43.1922 78.8651 43.2686 78.8337 43.3258 78.7781C43.3829 78.7225 43.4164 78.6469 43.4192 78.5672L43.4463 77.5657C43.4473 77.5227 43.4394 77.48 43.4231 77.4403C43.4067 77.4006 43.3823 77.3647 43.3513 77.335C43.3213 77.2996 43.2838 77.2712 43.2416 77.252C43.1994 77.2328 43.1534 77.2231 43.107 77.2237V77.2291ZM48.6929 72.7317C48.6169 71.646 48.2423 70.2264 45.9027 70.2264C45.3142 70.2362 44.7281 70.3016 44.152 70.4219C44.0816 70.4364 44.0185 70.4749 43.9734 70.5309C43.9283 70.5868 43.9042 70.6567 43.905 70.7286L44.0109 78.2307C44.0117 78.3053 44.0397 78.3771 44.0897 78.4326C44.1396 78.488 44.2081 78.5234 44.2823 78.5319L45.368 78.6161C45.4098 78.6201 45.452 78.6152 45.4918 78.6016C45.5316 78.588 45.568 78.5661 45.5987 78.5374C45.6297 78.5087 45.6545 78.4738 45.6713 78.435C45.6881 78.3962 45.6967 78.3544 45.6964 78.3121V75.8937L46.2392 75.8639L46.8472 78.4532C46.8605 78.5234 46.8979 78.5868 46.9529 78.6324C47.0079 78.678 47.077 78.7029 47.1485 78.7029H47.1729L48.2586 78.6188C48.3016 78.6156 48.3435 78.6033 48.3814 78.5828C48.4193 78.5622 48.4524 78.5337 48.4785 78.4994C48.5046 78.4654 48.5234 78.4264 48.5337 78.3849C48.5439 78.3433 48.5455 78.3 48.5382 78.2578L47.7755 75.3753C48.302 74.96 48.7987 74.2191 48.6902 72.7262L48.6929 72.7317ZM46.7522 73.7902C46.4597 74.0455 46.0872 74.1905 45.6991 74.2001V71.988C45.7963 71.9666 45.8954 71.9557 45.9949 71.9554C46.4048 71.9554 46.9096 72.14 46.9748 73.0194C46.9941 73.1556 46.9839 73.2945 46.9451 73.4265C46.9062 73.5585 46.8395 73.6807 46.7495 73.7848L46.7522 73.7902ZM52.7995 74.9247C53.8216 73.725 54.3417 72.1773 54.2516 70.6037C54.2495 70.5632 54.2394 70.5235 54.2219 70.4869C54.2043 70.4503 54.1797 70.4175 54.1494 70.3905C54.1191 70.3635 54.0837 70.3427 54.0454 70.3295C54.007 70.3162 53.9664 70.3107 53.9259 70.3133L52.6475 70.3974C52.5666 70.403 52.4912 70.4404 52.4377 70.5015C52.3843 70.5625 52.3573 70.6422 52.3625 70.7232C52.4059 71.3963 51.9608 72.8348 51.3229 73.7386L51.4152 70.8154C51.4163 70.774 51.409 70.7328 51.3938 70.6943C51.3785 70.6558 51.3556 70.6207 51.3264 70.5913C51.2973 70.5619 51.2624 70.5387 51.2241 70.5231C51.1857 70.5075 51.1445 70.4998 51.1031 70.5006L49.4556 70.525C49.4152 70.5254 49.3753 70.5338 49.3382 70.5497C49.3011 70.5656 49.2675 70.5888 49.2394 70.6179C49.2114 70.6469 49.1894 70.6813 49.1748 70.7189C49.1602 70.7566 49.1532 70.7968 49.1543 70.8371L49.3199 78.6025C49.3206 78.6458 49.3305 78.6884 49.3489 78.7275C49.3673 78.7667 49.3938 78.8015 49.4266 78.8297C49.4594 78.8579 49.4978 78.8788 49.5393 78.8911C49.5808 78.9034 49.6244 78.9068 49.6673 78.9011L50.9511 78.7301C51.0253 78.7215 51.0937 78.6862 51.1437 78.6307C51.1937 78.5752 51.2217 78.5034 51.2225 78.4288L51.2415 76.1516C51.5129 76.309 52.2648 77.4164 52.3951 78.5102C52.4038 78.5853 52.4399 78.6545 52.4965 78.7046C52.5531 78.7547 52.6262 78.7822 52.7018 78.7817H54.0589H54.0779C54.1563 78.7761 54.2297 78.7406 54.2827 78.6825C54.3358 78.6244 54.3645 78.5482 54.3629 78.4695C54.3384 78.1845 53.8852 75.7987 52.7995 74.9247ZM56.6319 70.1477L55.169 70.335C55.0944 70.3437 55.0255 70.3794 54.9755 70.4354C54.9255 70.4914 54.8977 70.5639 54.8976 70.639V78.2388C54.8975 78.2803 54.9059 78.3213 54.9221 78.3594C54.9384 78.3975 54.9622 78.432 54.9921 78.4606C55.0221 78.4893 55.0575 78.5116 55.0963 78.5262C55.1351 78.5408 55.1764 78.5474 55.2178 78.5455L56.8111 78.4261C56.8869 78.4179 56.9569 78.3816 57.0071 78.3243C57.0574 78.267 57.0843 78.1929 57.0825 78.1167L56.9685 70.4354C56.968 70.3921 56.9583 70.3494 56.94 70.3101C56.9218 70.2708 56.8954 70.2358 56.8627 70.2075C56.8291 70.1817 56.7905 70.1633 56.7493 70.1535C56.7081 70.1437 56.6654 70.1426 56.6238 70.1504L56.6319 70.1477ZM59.7451 70.3703C59.3 70.4002 57.8452 70.6607 57.7231 72.8131C57.7068 73.0863 57.6914 73.346 57.6769 73.5921C57.5874 75.0496 57.5249 76.1054 57.7122 77.0174C57.8235 77.5603 58.2822 78.8332 60.0871 78.8332C60.1984 78.8332 60.3151 78.8332 60.4346 78.8169C61.1891 78.7545 61.7455 78.5129 62.0957 78.0977C62.5924 77.5087 62.5245 76.7406 62.4892 76.347V76.2683C62.4803 76.1908 62.4423 76.1196 62.3828 76.0692C62.3233 76.0188 62.2468 75.9929 62.1689 75.9969L61.029 76.0457C60.9859 76.0478 60.9437 76.059 60.9052 76.0786C60.8667 76.0981 60.8327 76.1256 60.8056 76.1591C60.7784 76.1927 60.7586 76.2316 60.7476 76.2733C60.7365 76.3151 60.7343 76.3587 60.7413 76.4013C60.7963 76.7029 60.7435 77.0142 60.592 77.2807C60.5481 77.3317 60.4927 77.3715 60.4305 77.397C60.3682 77.4225 60.3008 77.4328 60.2337 77.4273H60.2174C60.146 77.4313 60.0746 77.4199 60.008 77.3936C59.9415 77.3674 59.8814 77.327 59.832 77.2753C59.6637 77.1015 59.4792 76.6727 59.5307 75.625C59.5307 75.3835 59.5552 75.0985 59.566 74.8108C59.5959 74.0291 59.6312 73.1415 59.7044 72.5824V72.5634C59.7587 72.14 59.8401 71.9608 60.1957 71.9445C60.2888 71.9288 60.3843 71.9343 60.475 71.9606C60.5657 71.9869 60.6493 72.0334 60.7196 72.0965C60.8074 72.2352 60.8394 72.402 60.8091 72.5634C60.8003 72.6077 60.8014 72.6534 60.8123 72.6972C60.8232 72.741 60.8437 72.7818 60.8722 72.8168C60.9007 72.8518 60.9366 72.8801 60.9773 72.8997C61.018 72.9192 61.0625 72.9295 61.1077 72.9298L62.4811 72.9488C62.5613 72.9496 62.6387 72.9192 62.6969 72.864C62.7552 72.8088 62.7897 72.7331 62.7932 72.653C62.7909 72.0851 62.5737 71.5391 62.1852 71.1249C61.6424 70.5494 60.82 70.297 59.737 70.3703H59.7451ZM68.8758 78.152C68.854 78.0624 68.2624 75.7336 67.0572 74.6235C67.6489 74.0806 68.8513 72.9678 68.4496 70.468C68.4369 70.3903 68.395 70.3203 68.3325 70.2724C68.2699 70.2245 68.1915 70.2022 68.1131 70.2102L66.5253 70.3866C66.4837 70.3912 66.4436 70.4041 66.4072 70.4246C66.3708 70.4452 66.3389 70.4728 66.3135 70.506C66.2644 70.5732 66.2439 70.6572 66.2565 70.7394C66.2565 70.7639 66.5823 72.5715 65.3554 73.6572L65.3853 70.5766C65.3856 70.5332 65.3766 70.4902 65.3591 70.4504C65.3415 70.4107 65.3157 70.3752 65.2834 70.3462C65.251 70.3172 65.2129 70.2954 65.1715 70.2823C65.1301 70.2691 65.0864 70.2649 65.0433 70.2699L63.4555 70.4463C63.3797 70.4557 63.3101 70.4927 63.2599 70.5503C63.2098 70.608 63.1828 70.6821 63.1841 70.7584L63.3686 78.4722C63.3695 78.5151 63.3794 78.5573 63.3977 78.5961C63.4159 78.6349 63.4421 78.6694 63.4745 78.6975C63.5326 78.7492 63.6085 78.7765 63.6862 78.7735H63.7106L65.0541 78.6242C65.1261 78.616 65.1928 78.5826 65.2424 78.53C65.2921 78.4773 65.3216 78.4088 65.3256 78.3365L65.4369 75.9263C65.8603 76.366 66.5714 77.487 66.6854 78.4288C66.6898 78.4689 66.702 78.5078 66.7215 78.5432C66.7409 78.5785 66.7672 78.6097 66.7987 78.635C66.8302 78.6602 66.8664 78.6789 66.9052 78.6901C66.944 78.7013 66.9846 78.7047 67.0247 78.7002L68.6098 78.5238C68.6529 78.5191 68.6946 78.5053 68.732 78.4833C68.7695 78.4613 68.8018 78.4317 68.8269 78.3962C68.8502 78.3605 68.8658 78.3204 68.8728 78.2783C68.8798 78.2363 68.878 78.1933 68.8676 78.152H68.8758Z" fill="white"/>
<path d="M64.7847 41.7012L66.6413 28.6539L58.8379 12.2791L53.5289 14.0976L46.6022 6.66882L34.3611 0L31.6822 9.89331L29.7822 4.6983L20.3911 13.8832L15.1309 23.0708L14.8975 32.5923L11.1953 30.8307L13.7141 46.0873L19.4465 55.9128L32.9606 60.5432L44.0292 60.9449L63.1128 53.9694L68.6036 40.3983L64.7847 41.7012ZM56.5281 34.4705L45.7065 34.7419L45.3157 46.9152L44.7321 54.1214L35.3057 54.0237V47.116L34.5267 35.0405L23.2138 35.5263L22.8311 23.8416L39.4828 23.7439L56.7208 23.2581L57.014 24.8161L56.5281 34.4705Z" fill="white"/>
</svg>
