<?xml version="1.0" encoding="utf-8"?>
<svg xmlns="http://www.w3.org/2000/svg" xmlns:xlink="http://www.w3.org/1999/xlink" viewBox="0 0 16.05 20.53">
  <defs>
    <style>.cls-1{fill:url(#linear-gradient);}</style>
    <linearGradient id="linear-gradient" x1="8.03" y1="20.53" x2="8.03" gradientUnits="userSpaceOnUse">
      <stop offset="0" stop-color="#e92324"/>
      <stop offset="1" stop-color="#f5e935"/>
    </linearGradient>
  </defs>
  <g id="图层_2" data-name="图层 2">
    <g id="图层_6" data-name="图层 6">
      <g id="Flame">
        <path class="cls-1" d="M10.89,19.66c.74-1.49,1.63-4,.39-5.12a7.59,7.59,0,0,1-2.82,0c-1.89-.43-2.48-1.92-2-3.84C4,13,3.84,16.46,4.79,19.76a.6.6,0,0,1-.91.67C3.72,20.32,0,17.8,0,13.91,0,7.55,7.22,7.27,7.22.6a.6.6,0,0,1,1-.46C11.09,2.56,16.34,8.38,16,13.72c-.15,2.65-1.59,4.91-4.28,6.71A.6.6,0,0,1,10.89,19.66Z"/>
      </g>
    </g>
  </g>
</svg>