<svg width="200" height="80" viewBox="0 0 200 80" fill="none" xmlns="http://www.w3.org/2000/svg">
<g clip-path="url(#clip0_1534_37517)">
<path fill-rule="evenodd" clip-rule="evenodd" d="M21.0289 50.8887C19.6728 52.1233 17.7084 52.7411 15.1364 52.7411H7.32943C6.99363 52.7411 6.72124 52.4735 6.72124 52.1435V28.3662C6.72124 28.0362 6.99363 27.7686 7.32943 27.7686H14.5777C17.2314 27.7686 19.2481 28.3494 20.6273 29.5096C22.0065 30.6702 22.6964 32.3713 22.6964 34.6119C22.6964 35.8811 22.4105 36.9735 21.8408 37.8882C21.3618 38.6559 20.7354 39.2501 19.962 39.6714C19.8025 39.7584 19.8193 39.9914 19.9884 40.0572C20.8949 40.4112 21.6112 41.0007 22.1377 41.8241C22.754 42.7906 23.0629 43.9825 23.0629 45.4002C23.0629 47.8247 22.3846 49.6536 21.0289 50.8887ZM29.3043 22H0.480398C0.215218 22 0 22.2152 0 22.4804V58.0298C0 58.2955 0.215218 58.5102 0.480398 58.5102H29.3043C29.5694 58.5102 29.7846 58.2955 29.7846 58.0298V22.4804C29.7846 22.2152 29.5694 22 29.3043 22ZM15.4683 41.8841H12.4625C12.1267 41.8841 11.8543 42.1517 11.8543 42.4818V47.9583C11.8543 48.2883 12.1267 48.5564 12.4625 48.5564H15.1364C16.0558 48.5564 16.7543 48.2763 17.2314 47.7157C17.7084 47.1555 17.9472 46.3605 17.9472 45.3319C17.9472 43.0909 17.1209 41.9413 15.4683 41.8841ZM12.4625 38.2139H14.5253C16.5386 38.2139 17.546 37.1907 17.546 35.1437C17.546 34.0119 17.313 33.2 16.8475 32.7081C16.3816 32.2166 15.6249 31.9707 14.5777 31.9707H12.4625C12.1267 31.9707 11.8543 32.2382 11.8543 32.5683V37.6163C11.8543 37.9463 12.1267 38.2139 12.4625 38.2139Z" fill="white"/>
<path opacity="0.2" fill-rule="evenodd" clip-rule="evenodd" d="M177.377 22.0806H176.192C176.122 22.0806 176.064 22.1377 176.064 22.2088V58.4625C176.064 58.5336 176.122 58.5908 176.192 58.5908H177.377C177.448 58.5908 177.506 58.5336 177.506 58.4625V22.2088C177.506 22.1377 177.448 22.0806 177.377 22.0806ZM147.593 22.0806H146.408C146.337 22.0806 146.28 22.1377 146.28 22.2088V58.4625C146.28 58.5336 146.337 58.5908 146.408 58.5908H147.593C147.663 58.5908 147.721 58.5336 147.721 58.4625V22.2088C147.721 22.1377 147.663 22.0806 147.593 22.0806ZM117.808 22.0806H116.623C116.552 22.0806 116.495 22.1377 116.495 22.2088V58.4625C116.495 58.5336 116.552 58.5908 116.623 58.5908H117.808C117.879 58.5908 117.936 58.5336 117.936 58.4625V22.2088C117.936 22.1377 117.879 22.0806 117.808 22.0806ZM88.0234 22.0806H86.8382C86.7676 22.0806 86.7104 22.1377 86.7104 22.2088V58.4625C86.7104 58.5336 86.7676 58.5908 86.8382 58.5908H88.0234C88.094 58.5908 88.1516 58.5336 88.1516 58.4625V22.2088C88.1516 22.1377 88.094 22.0806 88.0234 22.0806ZM58.2387 22.0806H57.0536C56.983 22.0806 56.9258 22.1377 56.9258 22.2088V58.4625C56.9258 58.5336 56.983 58.5908 57.0536 58.5908H58.2387C58.3093 58.5908 58.367 58.5336 58.367 58.4625V22.2088C58.367 22.1377 58.3093 22.0806 58.2387 22.0806Z" fill="white"/>
<path fill-rule="evenodd" clip-rule="evenodd" d="M199.558 40.3869H192.684C192.439 40.3869 192.24 40.5829 192.24 40.8245V42.6212C192.24 42.8633 192.439 43.0589 192.684 43.0589H196.394C196.64 43.0589 196.839 43.2553 196.839 43.497V48.5604C196.839 48.6829 196.787 48.7991 196.696 48.8822L196.372 49.1753C195.484 49.9891 194.187 50.3955 192.482 50.3955C190.672 50.3955 189.283 49.7292 188.315 48.3956C187.346 47.0625 186.862 45.1472 186.862 42.6505V37.5953C186.897 35.042 187.335 33.1838 188.177 32.0208C189.018 30.8577 190.343 30.276 192.153 30.276C193.663 30.276 194.79 30.7098 195.533 31.5783C196.212 32.371 196.634 33.4456 196.799 34.8013C196.826 35.0237 197.012 35.1952 197.239 35.1952H199.522C199.782 35.1952 199.991 34.9757 199.968 34.7216C199.764 32.5113 199.029 30.7943 197.764 29.5693C196.409 28.2588 194.533 27.6035 192.136 27.6035C189.323 27.6035 187.211 28.4687 185.799 30.1991C184.387 31.93 183.681 34.5313 183.681 38.0041V42.872C183.716 46.1176 184.508 48.6281 186.059 50.4041C187.609 52.1802 189.744 53.0679 192.464 53.0679C195.531 53.0679 197.859 52.1547 199.45 50.3273L199.906 49.7667C199.968 49.6888 200.003 49.5923 200.003 49.4928V40.8245C200.003 40.5829 199.804 40.3869 199.558 40.3869ZM169.83 28.0878H167.588C167.344 28.0878 167.146 28.2852 167.146 28.5288V45.6127C167.146 46.0748 166.526 46.2261 166.313 45.8159L157.226 28.3256C157.15 28.1795 156.999 28.0878 156.834 28.0878H154.384C154.14 28.0878 153.943 28.2852 153.943 28.5288V52.6231C153.943 52.8667 154.14 53.0641 154.384 53.0641H156.661C156.904 53.0641 157.102 52.8667 157.102 52.6231V35.6228C157.102 35.1611 157.722 35.0098 157.936 35.4196L166.988 52.8263C167.065 52.9723 167.215 53.0641 167.38 53.0641H169.83C170.074 53.0641 170.271 52.8667 170.271 52.6231V28.5288C170.271 28.2852 170.074 28.0878 169.83 28.0878ZM133.387 28.0878H131.01C130.753 28.0878 130.545 28.2852 130.545 28.5288V52.6231C130.545 52.8667 130.753 53.0641 131.01 53.0641H133.387C133.644 53.0641 133.852 52.8667 133.852 52.6231V28.5288C133.852 28.2852 133.644 28.0878 133.387 28.0878ZM112.667 28.0878H109.382C109.19 28.0878 109.02 28.2117 108.962 28.3947L102.962 47.1528C102.831 47.5621 102.252 47.5621 102.121 47.1528L96.1214 28.3947C96.0628 28.2117 95.8927 28.0878 95.701 28.0878H92.4161C92.172 28.0878 91.9746 28.2852 91.9746 28.5288V52.6231C91.9746 52.8667 92.172 53.0641 92.4161 53.0641H94.6725C94.9166 53.0641 95.114 52.8667 95.114 52.6231V43.338L94.8781 35.5142C94.8685 35.2 95.311 35.1208 95.4109 35.4191L101.223 52.7629C101.283 52.943 101.451 53.0641 101.641 53.0641H103.408C103.597 53.0641 103.766 52.943 103.826 52.7634L109.673 35.3461C109.773 35.0478 110.215 35.1265 110.205 35.4412L109.969 43.338V52.6231C109.969 52.8667 110.166 53.0641 110.41 53.0641H112.667C112.91 53.0641 113.108 52.8667 113.108 52.6231V28.5288C113.108 28.2852 112.91 28.0878 112.667 28.0878ZM75.7838 43.8352H70.1252C69.8278 43.8352 69.6145 43.5503 69.7 43.2678L72.5219 33.889C72.6482 33.4697 73.2453 33.4692 73.3722 33.8881L76.2084 43.2669C76.2944 43.5498 76.0811 43.8352 75.7838 43.8352ZM74.4089 28.3933C74.3493 28.2112 74.1788 28.0878 73.9861 28.0878H71.9233C71.7306 28.0878 71.5601 28.2112 71.501 28.3938L63.6926 52.4876C63.6004 52.7725 63.8142 53.0641 64.1154 53.0641H66.4189C66.6159 53.0641 66.7888 52.9358 66.8445 52.7485L68.6066 46.8439C68.6624 46.6566 68.8353 46.5283 69.0318 46.5283H76.8618C77.0573 46.5283 77.2302 46.6556 77.2869 46.842L79.0807 52.7504C79.1374 52.9368 79.3099 53.0641 79.5059 53.0641H81.8108C82.112 53.0641 82.3258 52.7725 82.2331 52.4871L74.4089 28.3933ZM50.635 40.3869H43.7609C43.5155 40.3869 43.3166 40.5829 43.3166 40.8245V42.6212C43.3166 42.8633 43.5155 43.0589 43.7609 43.0589H47.4711C47.7165 43.0589 47.9154 43.2553 47.9154 43.497V48.5604C47.9154 48.6824 47.8635 48.7991 47.7723 48.8822L47.4485 49.1753C46.5612 49.9891 45.2641 50.3955 43.5587 50.3955C41.7486 50.3955 40.3597 49.7292 39.3917 48.3956C38.4232 47.0625 37.939 45.1472 37.939 42.6505V37.5953C37.9741 35.042 38.4117 33.1838 39.2534 32.0208C40.0945 30.8577 41.42 30.276 43.2296 30.276C44.74 30.276 45.8665 30.7098 46.6102 31.5783C47.289 32.371 47.7108 33.4456 47.8755 34.8013C47.9025 35.0237 48.0884 35.1952 48.3156 35.1952H50.5989C50.8579 35.1952 51.0678 34.9757 51.0443 34.7216C50.8406 32.5113 50.1056 30.7943 48.8407 29.5693C47.4859 28.2588 45.61 27.6035 43.2128 27.6035C40.4001 27.6035 38.2878 28.4687 36.8759 30.1991C35.4635 31.93 34.7578 34.5313 34.7578 38.0041V42.872C34.7924 46.1176 35.5846 48.6281 37.1353 50.4041C38.6851 52.1802 40.8204 53.0679 43.5409 53.0679C46.6073 53.0679 48.9353 52.1547 50.5264 50.3273L50.9823 49.7662C51.0452 49.6888 51.0793 49.5923 51.0793 49.4933V40.8245C51.0793 40.5829 50.8804 40.3869 50.635 40.3869Z" fill="white"/>
</g>
<defs>
<clipPath id="clip0_1534_37517">
<rect width="200" height="80" fill="white"/>
</clipPath>
</defs>
</svg>
