<svg width="20" height="20" viewBox="0 0 20 20" fill="none" xmlns="http://www.w3.org/2000/svg">
<g id="ic:outline-discord">
<path id="Vector" d="M16.144 4.3307C15.0923 3.84047 13.9537 3.48466 12.7677 3.27907C12.7573 3.27874 12.747 3.28069 12.7374 3.28479C12.7278 3.28889 12.7193 3.29504 12.7123 3.30279C12.57 3.56373 12.404 3.90372 12.2933 4.16466C11.0353 3.97489 9.75593 3.97489 8.49793 4.16466C8.38723 3.89582 8.22118 3.56373 8.07095 3.30279C8.06304 3.28698 8.03932 3.27907 8.0156 3.27907C6.82955 3.48466 5.69886 3.84047 4.63932 4.3307C4.63141 4.3307 4.62351 4.33861 4.6156 4.34652C2.4649 7.56466 1.87188 10.6958 2.16444 13.7954C2.16444 13.8112 2.17234 13.827 2.18816 13.8349C3.61141 14.8786 4.97932 15.5112 6.33141 15.9302C6.35514 15.9381 6.37886 15.9302 6.38676 15.9144C6.70304 15.4795 6.98769 15.0209 7.23281 14.5386C7.24862 14.507 7.23281 14.4754 7.20118 14.4674C6.75048 14.2935 6.32351 14.0879 5.90444 13.8507C5.87281 13.8349 5.87281 13.7874 5.89653 13.7637C5.98351 13.7005 6.07048 13.6293 6.15746 13.5661C6.17327 13.5502 6.197 13.5502 6.21281 13.5581C8.93281 14.7995 11.8663 14.7995 14.5547 13.5581C14.5705 13.5502 14.5942 13.5502 14.61 13.5661C14.697 13.6372 14.784 13.7005 14.8709 13.7716C14.9026 13.7954 14.9026 13.8428 14.863 13.8586C14.4519 14.1037 14.017 14.3014 13.5663 14.4754C13.5347 14.4833 13.5268 14.5228 13.5347 14.5465C13.7877 15.0288 14.0723 15.4874 14.3807 15.9223C14.4044 15.9302 14.4282 15.9381 14.4519 15.9302C15.8119 15.5112 17.1798 14.8786 18.603 13.8349C18.6189 13.827 18.6268 13.8112 18.6268 13.7954C18.9747 10.2135 18.0496 7.10605 16.1756 4.34652C16.1677 4.33861 16.1598 4.3307 16.144 4.3307ZM7.64397 11.9056C6.82955 11.9056 6.14955 11.1544 6.14955 10.2293C6.14955 9.30419 6.81374 8.55303 7.64397 8.55303C8.48211 8.55303 9.1463 9.3121 9.13839 10.2293C9.13839 11.1544 8.47421 11.9056 7.64397 11.9056ZM13.1551 11.9056C12.3407 11.9056 11.6607 11.1544 11.6607 10.2293C11.6607 9.30419 12.3249 8.55303 13.1551 8.55303C13.9933 8.55303 14.6575 9.3121 14.6496 10.2293C14.6496 11.1544 13.9933 11.9056 13.1551 11.9056Z" fill="#1E5128"/>
</g>
</svg>
