<svg width="34" height="34" viewBox="0 0 34 34" fill="none" xmlns="http://www.w3.org/2000/svg">
<g id="mdi:github">
<path id="Vector" d="M16.9999 0.944443C14.8914 0.944443 12.8036 1.35973 10.8557 2.1666C8.90775 2.97347 7.1378 4.15611 5.6469 5.64701C2.6359 8.65801 0.944336 12.7418 0.944336 17C0.944336 24.0966 5.55228 30.1174 11.9263 32.2528C12.7291 32.3812 12.986 31.8835 12.986 31.45V28.7366C8.53861 29.6999 7.59134 26.5852 7.59134 26.5852C6.85278 24.7227 5.80917 24.225 5.80917 24.225C4.34811 23.2296 5.92156 23.2617 5.92156 23.2617C7.52711 23.3741 8.37806 24.9154 8.37806 24.9154C9.77489 27.3558 12.1351 26.6333 13.0502 26.248C13.1947 25.2044 13.6122 24.4979 14.0617 24.0966C10.4974 23.6952 6.75645 22.3144 6.75645 16.1972C6.75645 14.4151 7.36656 12.9861 8.41017 11.8462C8.24961 11.4448 7.68767 9.775 8.57072 7.6075C8.57072 7.6075 9.91939 7.174 12.986 9.24516C14.2544 8.89194 15.6352 8.71533 16.9999 8.71533C18.3646 8.71533 19.7454 8.89194 21.0138 9.24516C24.0804 7.174 25.4291 7.6075 25.4291 7.6075C26.3121 9.775 25.7502 11.4448 25.5896 11.8462C26.6332 12.9861 27.2433 14.4151 27.2433 16.1972C27.2433 22.3304 23.4863 23.6791 19.9059 24.0805C20.4839 24.5782 21.0138 25.5576 21.0138 27.0508V31.45C21.0138 31.8835 21.2707 32.3973 22.0895 32.2528C28.4636 30.1013 33.0554 24.0966 33.0554 17C33.0554 14.8916 32.6402 12.8038 31.8333 10.8558C31.0264 8.90785 29.8438 7.1379 28.3529 5.64701C26.862 4.15611 25.092 2.97347 23.1441 2.1666C21.1961 1.35973 19.1083 0.944443 16.9999 0.944443Z" fill="white"/>
</g>
</svg>
