<svg width="20" height="20" viewBox="0 0 20 20" fill="none" xmlns="http://www.w3.org/2000/svg">
<g id="ri:twitter-fill">
<path id="Vector" d="M17.6799 5.37918C17.0762 5.64619 16.4361 5.82155 15.7806 5.89945C16.471 5.48603 16.9875 4.83576 17.2339 4.06978C16.5856 4.45564 15.8747 4.72606 15.1346 4.87234C14.637 4.33987 13.9773 3.98673 13.2583 3.86782C12.5392 3.74892 11.801 3.87091 11.1584 4.21484C10.5159 4.55876 10.0049 5.10534 9.70501 5.76962C9.40512 6.43389 9.33309 7.17863 9.50013 7.88806C8.18515 7.82227 6.89871 7.48063 5.72434 6.88535C4.54998 6.29006 3.51394 5.45443 2.68352 4.43271C2.38961 4.93753 2.23516 5.5114 2.23599 6.09555C2.23599 7.24206 2.82031 8.25494 3.70669 8.84797C3.18167 8.83141 2.66822 8.68962 2.2091 8.43443V8.47476C2.20908 9.23847 2.47322 9.97868 2.95673 10.5698C3.44024 11.161 4.11335 11.5667 4.8619 11.7182C4.37454 11.8504 3.86348 11.8699 3.36748 11.7751C3.57853 12.4325 3.98992 13.0074 4.54403 13.4193C5.09814 13.8312 5.76721 14.0595 6.45752 14.0721C5.77148 14.6109 4.98594 15.0092 4.14585 15.2442C3.30575 15.4792 2.42756 15.5463 1.56152 15.4416C3.07312 16.4137 4.83272 16.9297 6.6299 16.9281C12.7135 16.9281 16.0392 11.889 16.0392 7.5188C16.0392 7.37648 16.036 7.23257 16.0297 7.09104C16.6768 6.62323 17.2354 6.04381 17.6791 5.37997" fill="#1E5128"/>
</g>
</svg>
