<svg width="140" height="80" viewBox="0 0 140 80" fill="none" xmlns="http://www.w3.org/2000/svg">
<path d="M6.38382 64.8688C6.4212 64.8592 6.45629 64.8423 6.487 64.819C6.51772 64.7956 6.54344 64.7664 6.56264 64.7329C6.58183 64.6994 6.59412 64.6625 6.59876 64.6242C6.60341 64.5859 6.60032 64.547 6.58968 64.51C6.52296 64.2634 6.52296 64.0036 6.58968 63.7571C6.61017 63.6914 6.60593 63.6204 6.57777 63.5576C6.54961 63.4948 6.49946 63.4444 6.43675 63.416C5.70972 63.1029 5.08837 62.5868 4.64711 61.9296C4.20585 61.2724 3.9634 60.502 3.9488 59.7105C3.94524 59.1395 4.06294 58.5742 4.29412 58.052C4.52529 57.5298 4.86467 57.0627 5.28982 56.6814C6.27847 55.8094 7.56645 55.354 8.88354 55.411C9.84993 55.3894 10.8045 55.627 11.6479 56.0992C11.7081 56.1348 11.7792 56.1473 11.8479 56.1344L14.9123 55.5463C14.9533 55.5377 14.9956 55.5382 15.0364 55.5476C15.0772 55.5571 15.1155 55.5753 15.1485 55.6011C15.1816 55.6268 15.2086 55.6595 15.2277 55.6967C15.2468 55.734 15.2576 55.775 15.2593 55.8168L15.3534 58.1695C15.356 58.2386 15.3336 58.3063 15.2904 58.3603C15.2473 58.4143 15.1861 58.4509 15.1181 58.4636L13.983 58.6871C13.9094 58.7014 13.8443 58.7438 13.8015 58.8053C13.7587 58.8668 13.7415 58.9425 13.7536 59.0165C13.8806 59.6562 13.8389 60.318 13.6326 60.9367C13.4264 61.5555 13.0627 62.1099 12.5772 62.5455C11.7479 63.3227 10.6713 63.783 9.5364 63.8453C9.46517 63.8526 9.39921 63.8862 9.35137 63.9395C9.30353 63.9928 9.27724 64.0619 9.27761 64.1335C9.27226 64.1981 9.27226 64.263 9.27761 64.3276C9.28851 64.3937 9.32206 64.4539 9.37251 64.4979C9.42295 64.5419 9.48714 64.5669 9.55405 64.5688C10.8716 64.5877 12.1635 64.9355 13.3124 65.5804C13.7922 65.866 14.1874 66.2739 14.4578 66.7623C14.7283 67.2507 14.8641 67.8021 14.8516 68.3603C14.839 68.9184 14.6785 69.4632 14.3863 69.9389C14.0942 70.4147 13.681 70.8043 13.1889 71.068C11.8689 71.7402 10.3991 72.0641 8.91883 72.0091C7.44031 72.0758 5.96907 71.7661 4.64284 71.1092C4.13241 70.8488 3.70687 70.4482 3.4162 69.9543C3.12552 69.4605 2.98178 68.894 3.00185 68.3213C3.00185 66.5509 4.28994 65.3805 6.38382 64.8688ZM8.93647 69.0683C10.5755 69.0683 11.395 68.8193 11.395 68.3213C11.395 67.7978 10.5775 67.5508 8.93647 67.5508C7.29548 67.5508 6.47793 67.7978 6.47793 68.3213C6.47793 68.8448 7.29548 69.0683 8.93647 69.0683ZM10.3775 59.7105C10.3854 59.5198 10.3506 59.3297 10.2757 59.1542C10.2008 58.9786 10.0876 58.822 9.94446 58.6958C9.80131 58.5695 9.63177 58.4768 9.44823 58.4244C9.26468 58.3721 9.07176 58.3613 8.88354 58.393C6.97199 58.3165 6.92493 61.0986 8.88354 60.928C9.77755 60.9221 10.3775 60.4751 10.3775 59.7105Z" fill="#EAEAEA"/>
<path d="M17.2272 56.7316C17.205 56.6671 17.2065 56.5968 17.2312 56.5333C17.256 56.4698 17.3025 56.4171 17.3625 56.3846C18.5825 55.7642 19.9287 55.4321 21.2973 55.4141C24.5969 55.4141 25.938 57.0022 25.938 60.1548V66.5952C25.938 66.633 25.9305 66.6705 25.916 66.7055C25.9015 66.7405 25.8803 66.7722 25.8536 66.799C25.8268 66.8258 25.795 66.847 25.7601 66.8615C25.7251 66.8759 25.6876 66.8834 25.6498 66.8834H22.9971C22.9207 66.8834 22.8474 66.853 22.7933 66.799C22.7393 66.7449 22.7089 66.6716 22.7089 66.5952C22.709 66.5406 22.6935 66.4872 22.6644 66.441C22.6353 66.3949 22.5937 66.358 22.5444 66.3346C22.4951 66.3112 22.4402 66.3022 22.386 66.3088C22.3318 66.3154 22.2806 66.3372 22.2384 66.3717C21.5174 66.8655 20.6519 67.1036 19.7798 67.0481C19.3076 67.0822 18.8336 67.0144 18.39 66.8491C17.9463 66.6838 17.5434 66.425 17.2087 66.0902C16.8739 65.7555 16.6151 65.3526 16.4498 64.9089C16.2845 64.4653 16.2167 63.9913 16.2508 63.5191C16.2508 61.1135 17.9153 59.8195 20.2739 59.8195C20.881 59.7976 21.4848 59.9164 22.0384 60.1665C22.0843 60.1898 22.1355 60.2004 22.1869 60.1972C22.2382 60.194 22.2877 60.1771 22.3303 60.1483C22.3729 60.1195 22.4071 60.0798 22.4292 60.0334C22.4513 59.9869 22.4605 59.9354 22.456 59.8842C22.4548 59.6915 22.413 59.5013 22.3334 59.3259C22.2537 59.1505 22.1379 58.9938 21.9936 58.8662C21.8493 58.7385 21.6797 58.6427 21.4959 58.585C21.3121 58.5273 21.1181 58.5091 20.9268 58.5314C20.0404 58.5765 19.1687 58.7755 18.3506 59.1196C18.3143 59.1335 18.2757 59.14 18.2369 59.1386C18.1981 59.1372 18.1599 59.128 18.1248 59.1115C18.0896 59.0951 18.0582 59.0717 18.0323 59.0427C18.0064 59.0138 17.9866 58.9799 17.9742 58.9431L17.2272 56.7316ZM22.4619 63.2544V62.8192C22.4622 62.7677 22.4487 62.7171 22.4228 62.6727C22.397 62.6282 22.3597 62.5914 22.3148 62.5662C21.924 62.3672 21.4885 62.272 21.0503 62.2898C20.4268 62.2898 19.9798 62.6133 19.9798 63.1368C19.9798 63.6602 20.4268 63.9308 21.0503 63.9308C21.2968 63.9556 21.5458 63.9269 21.7803 63.8467C22.0148 63.7665 22.2292 63.6367 22.409 63.4661C22.4537 63.4074 22.4747 63.3339 22.4678 63.2603L22.4619 63.2544Z" fill="#EAEAEA"/>
<path d="M45.469 66.8821H42.3223C42.2458 66.8821 42.1725 66.8518 42.1185 66.7977C42.0644 66.7437 42.0341 66.6704 42.0341 66.5939V60.577C42.0341 59.5065 41.5635 58.9889 40.646 58.9889C40.3137 58.9772 39.9843 59.0551 39.6925 59.2144C39.4007 59.3738 39.1571 59.6088 38.9874 59.8947C38.9665 59.9367 38.9564 59.9831 38.9579 60.03V66.5998C38.9579 66.6763 38.9276 66.7496 38.8735 66.8036C38.8195 66.8577 38.7462 66.888 38.6697 66.888H35.5172C35.4407 66.888 35.3674 66.8577 35.3134 66.8036C35.2593 66.7496 35.229 66.6763 35.229 66.5998V60.5535C35.229 59.5124 34.7819 58.9889 33.9115 58.9889C33.5819 58.9749 33.254 59.0421 32.9565 59.1847C32.6591 59.3273 32.4013 59.5408 32.2058 59.8065C32.1672 59.8572 32.1465 59.9192 32.1469 59.9829V66.5998C32.1469 66.6377 32.1395 66.6752 32.125 66.7101C32.1105 66.7451 32.0893 66.7769 32.0625 66.8036C32.0358 66.8304 32.004 66.8516 31.969 66.8661C31.9341 66.8806 31.8966 66.888 31.8587 66.888H28.7179C28.6415 66.888 28.5682 66.8577 28.5141 66.8036C28.4601 66.7496 28.4297 66.6763 28.4297 66.5998V56.0128C28.4297 55.9364 28.4601 55.863 28.5141 55.809C28.5682 55.755 28.6415 55.7246 28.7179 55.7246H31.8646C31.9411 55.7246 32.0144 55.755 32.0684 55.809C32.1225 55.863 32.1528 55.9364 32.1528 56.0128V56.1422C32.1531 56.1947 32.1677 56.2462 32.195 56.2911C32.2224 56.336 32.2615 56.3725 32.3082 56.3967C32.3548 56.4209 32.4072 56.4319 32.4596 56.4285C32.5121 56.4252 32.5626 56.4075 32.6057 56.3775C33.4383 55.7952 34.437 55.4981 35.4525 55.5305C36.8699 55.5305 37.9228 56.0481 38.4404 56.8245C38.4648 56.8605 38.4969 56.8906 38.5344 56.9127C38.5718 56.9347 38.6137 56.9482 38.6571 56.9522C38.7004 56.9561 38.744 56.9504 38.7849 56.9354C38.8257 56.9205 38.8627 56.8966 38.8932 56.8656C39.3246 56.4219 39.8443 56.0737 40.4189 55.8437C40.9934 55.6137 41.6098 55.507 42.2282 55.5305C44.5808 55.5305 45.7572 56.895 45.7572 59.6006V66.6116C45.7527 66.6849 45.7203 66.7538 45.6668 66.8041C45.6132 66.8544 45.5424 66.8823 45.469 66.8821Z" fill="#EAEAEA"/>
<path d="M57.9445 65.7057C57.9682 65.7671 57.9707 65.8346 57.9515 65.8975C57.9323 65.9604 57.8926 66.0151 57.8387 66.0527C56.6007 66.8456 55.1493 67.2397 53.6803 67.182C52.8742 67.2177 52.0689 67.0937 51.3109 66.8171C50.5528 66.5406 49.8569 66.1169 49.2632 65.5705C48.2021 64.4165 47.6133 62.9062 47.6133 61.3386C47.6133 59.771 48.2021 58.2606 49.2632 57.1067C49.8423 56.5414 50.5306 56.1002 51.286 55.81C52.0415 55.5197 52.8482 55.3866 53.6568 55.4187C55.0772 55.393 56.4506 55.9276 57.4799 56.9067C58.0036 57.3825 58.417 57.967 58.6913 58.6192C58.9656 59.2714 59.0942 59.9757 59.0679 60.6828C59.0768 61.2343 59.0215 61.785 58.9032 62.3238C58.8886 62.3875 58.8526 62.4444 58.8013 62.485C58.75 62.5256 58.6864 62.5476 58.6209 62.5473H51.904C51.8536 62.547 51.804 62.5599 51.7601 62.5848C51.7162 62.6097 51.6797 62.6457 51.6541 62.6892C51.6285 62.7326 51.6147 62.7821 51.6142 62.8325C51.6137 62.883 51.6264 62.9326 51.6511 62.9766C52.0628 63.7118 52.8745 64.0883 54.0744 64.0883C54.9949 64.1048 55.9048 63.8904 56.7211 63.4648C56.757 63.4453 56.7966 63.4336 56.8372 63.4305C56.8779 63.4274 56.9188 63.433 56.9572 63.4469C56.9955 63.4608 57.0305 63.4827 57.0598 63.5112C57.0891 63.5396 57.112 63.5739 57.127 63.6118L57.9445 65.7057ZM51.7923 60.0593H55.039C55.0831 60.0598 55.1267 60.0501 55.1665 60.031C55.2062 60.0119 55.2411 59.984 55.2684 59.9493C55.2956 59.9147 55.3146 59.8742 55.3238 59.8311C55.3329 59.788 55.3321 59.7433 55.3213 59.7005C55.2031 59.3341 54.9644 59.0184 54.6441 58.8048C54.3237 58.5912 53.9405 58.4923 53.5568 58.5242C53.1485 58.4955 52.7406 58.5858 52.3826 58.7842C52.0245 58.9825 51.7317 59.2804 51.5394 59.6417C51.5175 59.6853 51.507 59.7337 51.5089 59.7825C51.5108 59.8312 51.5251 59.8787 51.5504 59.9204C51.5756 59.9622 51.6111 59.9968 51.6534 60.0211C51.6957 60.0454 51.7435 60.0585 51.7923 60.0593Z" fill="#EAEAEA"/>
<path d="M64.4298 62.6426C62.7652 62.2721 60.5831 61.4663 60.6067 59.0666C60.6067 56.7551 62.4712 55.414 64.9768 55.414C66.5843 55.3385 68.1688 55.8182 69.4645 56.7727C69.5183 56.8146 69.5556 56.8742 69.5696 56.941C69.5836 57.0078 69.5734 57.0774 69.5409 57.1374L68.4058 59.2842C68.3874 59.3191 68.3621 59.3499 68.3314 59.3747C68.3007 59.3995 68.2652 59.4176 68.2271 59.4281C68.1891 59.4386 68.1493 59.4411 68.1102 59.4356C68.0711 59.4301 68.0336 59.4166 67.9999 59.3959C67.1631 58.843 66.1855 58.541 65.1826 58.5255C64.6591 58.5255 64.3121 58.749 64.3121 59.0195C64.3121 60.1606 70.1938 59.443 70.1938 63.4131C70.1938 65.6952 68.3293 67.1892 65.3767 67.1892C64.2904 67.1894 63.2163 66.9609 62.2241 66.5187C61.5514 66.2512 60.9393 65.8511 60.4243 65.3423C60.3847 65.2909 60.3633 65.2278 60.3633 65.1629C60.3633 65.098 60.3847 65.035 60.4243 64.9835L61.8771 62.9779C61.8998 62.9463 61.9286 62.9197 61.9618 62.8996C61.995 62.8794 62.032 62.8662 62.0704 62.8607C62.1089 62.8552 62.1481 62.8576 62.1856 62.8676C62.2231 62.8776 62.2582 62.8951 62.2888 62.9191C62.7204 63.2417 63.1957 63.5011 63.7004 63.6896C64.3165 63.9402 64.971 64.0835 65.6355 64.1131C66.2237 64.1131 66.4825 63.9366 66.4825 63.619C66.5236 63.1602 65.5943 62.9132 64.4298 62.6426Z" fill="#EAEAEA"/>
<path d="M6.6988 21.2454L6.49294 22.61C6.43038 23.0281 6.45869 23.4548 6.57594 23.8609C6.69319 24.2671 6.89663 24.6432 7.17239 24.9636C7.44815 25.284 7.78975 25.5412 8.17391 25.7177C8.55807 25.8941 8.97575 25.9857 9.3985 25.9861H27.0436L6.59882 32.7559C6.08343 32.9269 5.62544 33.2371 5.27559 33.6524C4.92573 34.0677 4.69767 34.5717 4.61669 35.1086L3.79913 40.5609L3.50504 42.5078C3.44248 42.9258 3.47078 43.3525 3.58803 43.7587C3.70529 44.1648 3.90873 44.5409 4.18449 44.8613C4.46025 45.1818 4.80185 45.439 5.18601 45.6154C5.57017 45.7919 5.98786 45.8834 6.4106 45.8838H25.8614C26.5646 45.8834 27.2443 45.6309 27.7773 45.1723C28.3104 44.7137 28.6615 44.0793 28.7669 43.3841L28.9728 42.0196C29.0354 41.6015 29.0071 41.1748 28.8898 40.7687C28.7726 40.3625 28.5691 39.9864 28.2934 39.666C28.0176 39.3456 27.676 39.0884 27.2918 38.9119C26.9077 38.7355 26.49 38.6439 26.0672 38.6435H9.59848L28.8081 32.2913C29.3235 32.1203 29.7815 31.81 30.1313 31.3948C30.4812 30.9795 30.7092 30.4755 30.7902 29.9386L31.6078 24.4804L31.9607 22.1277C32.0214 21.7105 31.9917 21.2851 31.8736 20.8804C31.7555 20.4757 31.5518 20.1011 31.2762 19.782C31.0006 19.4629 30.6597 19.2069 30.2765 19.0311C29.8933 18.8553 29.4767 18.764 29.0551 18.7634H9.60436C8.90379 18.7632 8.22617 19.0131 7.6935 19.4682C7.16083 19.9232 6.80809 20.5535 6.6988 21.2454ZM35.4309 21.2454L32.2371 42.5136C32.1746 42.9317 32.2029 43.3584 32.3201 43.7645C32.4374 44.1707 32.6408 44.5468 32.9166 44.8672C33.1923 45.1876 33.5339 45.4448 33.9181 45.6213C34.3023 45.7977 34.7199 45.8893 35.1427 45.8897H36.4425C37.1457 45.8892 37.8254 45.6368 38.3585 45.1782C38.8915 44.7196 39.2426 44.0852 39.3481 43.39L42.5418 22.1159C42.6007 21.6996 42.5696 21.2755 42.4507 20.8723C42.3317 20.469 42.1277 20.0959 41.8523 19.7782C41.577 19.4604 41.2367 19.2054 40.8544 19.0304C40.4721 18.8553 40.0567 18.7643 39.6363 18.7634H38.3364C37.6359 18.7632 36.9583 19.0131 36.4256 19.4682C35.8929 19.9232 35.5402 20.5535 35.4309 21.2454ZM40.9479 10.0173H39.6481C38.9449 10.0178 38.2652 10.2702 37.7321 10.7288C37.1991 11.1874 36.848 11.8218 36.7425 12.517C36.6799 12.9351 36.7082 13.3618 36.8255 13.7679C36.9428 14.1741 37.1462 14.5502 37.4219 14.8706C37.6977 15.191 38.0393 15.4482 38.4235 15.6247C38.8076 15.8011 39.2253 15.8927 39.6481 15.8931H40.9479C41.6511 15.8926 42.3308 15.6402 42.8639 15.1816C43.3969 14.723 43.748 14.0886 43.8535 13.3934C43.916 12.9753 43.8877 12.5486 43.7705 12.1425C43.6532 11.7363 43.4498 11.3602 43.174 11.0398C42.8983 10.7194 42.5567 10.4622 42.1725 10.2857C41.7883 10.1093 41.3707 10.0177 40.9479 10.0173ZM72.1209 10.0173H70.821C70.1178 10.0178 69.438 10.2702 68.9051 10.7288C68.372 11.1874 68.0209 11.8218 67.9154 12.517C67.8529 12.9351 67.8811 13.3618 67.9984 13.7679C68.1157 14.1741 68.3191 14.5502 68.5949 14.8706C68.8707 15.191 69.2123 15.4482 69.5964 15.6247C69.9806 15.8011 70.3983 15.8927 70.821 15.8931H72.1209C72.824 15.8926 73.5038 15.6402 74.0368 15.1816C74.5699 14.723 74.9209 14.0886 75.0264 13.3934C75.0892 12.9738 75.0605 12.5457 74.9422 12.1382C74.8239 11.7308 74.6189 11.3538 74.3412 11.0331C74.0635 10.7124 73.7197 10.4555 73.3334 10.2802C72.9471 10.1049 72.5274 10.0152 72.1032 10.0173H72.1209ZM66.3156 45.8956H67.6155C68.3187 45.8951 68.9984 45.6427 69.5314 45.1841C70.0645 44.7255 70.4156 44.0911 70.521 43.3959L73.6971 22.1159C73.756 21.6996 73.7249 21.2755 73.606 20.8723C73.487 20.469 73.283 20.0959 73.0076 19.7782C72.7323 19.4604 72.392 19.2054 72.0097 19.0304C71.6274 18.8553 71.212 18.7643 70.7916 18.7634H69.4917C68.7886 18.7639 68.1087 19.0163 67.5758 19.4749C67.0427 19.9335 66.6917 20.5679 66.5862 21.2631L63.3924 42.5313C63.3336 42.9476 63.3647 43.3717 63.4836 43.775C63.6025 44.1782 63.8066 44.5513 64.0819 44.8691C64.3573 45.1868 64.6976 45.4418 65.0799 45.6168C65.4622 45.7919 65.8775 45.8829 66.298 45.8838L66.3156 45.8956ZM78.079 21.2572L74.8853 42.5254C74.8227 42.9435 74.851 43.3702 74.9682 43.7763C75.0855 44.1825 75.2889 44.5586 75.5647 44.879C75.8405 45.1994 76.1821 45.4566 76.5662 45.6331C76.9504 45.8095 77.3681 45.9011 77.7908 45.9015H99.1002C99.8033 45.901 100.483 45.6486 101.016 45.19C101.549 44.7314 101.9 44.097 102.006 43.4018L105.2 22.1336C105.262 21.714 105.232 21.2859 105.113 20.8788C104.994 20.4717 104.788 20.0952 104.51 19.775C104.232 19.4549 103.888 19.1987 103.501 19.0241C103.114 18.8495 102.694 18.7605 102.27 18.7634H80.961C80.2605 18.7632 79.5829 19.0131 79.0502 19.4682C78.5175 19.9232 78.1648 20.5535 78.0555 21.2454L78.079 21.2572ZM95.1771 38.6435H83.049C83.0036 38.6431 82.9587 38.633 82.9174 38.6138C82.8762 38.5947 82.8395 38.5668 82.81 38.5323C82.7804 38.4977 82.7587 38.4572 82.7461 38.4134C82.7336 38.3697 82.7306 38.3238 82.7373 38.2788L84.543 26.2508C84.5542 26.1759 84.5918 26.1075 84.6489 26.0579C84.7061 26.0083 84.779 25.9808 84.8547 25.9802H96.9828C97.0282 25.9805 97.0731 25.9907 97.1144 26.0098C97.1556 26.029 97.1923 26.0569 97.2218 26.0914C97.2514 26.126 97.273 26.1665 97.2857 26.2103C97.2981 26.254 97.3012 26.2999 97.2945 26.3449L95.4888 38.3729C95.4776 38.4478 95.44 38.5161 95.3829 38.5657C95.3257 38.6153 95.2528 38.6429 95.1771 38.6435ZM47.6177 9.49972L42.6595 42.5136C42.5969 42.9317 42.6252 43.3584 42.7425 43.7645C42.8597 44.1707 43.0632 44.5468 43.3389 44.8672C43.6147 45.1876 43.9563 45.4448 44.3404 45.6213C44.7246 45.7977 45.1423 45.8893 45.565 45.8897H46.8649C47.5681 45.8892 48.2478 45.6368 48.7808 45.1782C49.3139 44.7196 49.665 44.0852 49.7704 43.39L54.7287 10.3761C54.7913 9.95751 54.7629 9.53034 54.6453 9.12377C54.5277 8.71719 54.3237 8.34079 54.0473 8.02027C53.7709 7.69975 53.4286 7.44267 53.0437 7.26659C52.6589 7.09051 52.2405 6.99957 51.8173 7H50.5233C49.8201 7.00048 49.1404 7.2529 48.6074 7.7115C48.0743 8.17009 47.7232 8.8045 47.6177 9.49972ZM57.8284 9.49972L52.8701 42.5136C52.8075 42.9317 52.8358 43.3584 52.9531 43.7645C53.0703 44.1707 53.2738 44.5468 53.5495 44.8672C53.8253 45.1876 54.1669 45.4448 54.5511 45.6213C54.9352 45.7977 55.3529 45.8893 55.7756 45.8897H57.0755C57.7787 45.8892 58.4584 45.6368 58.9914 45.1782C59.5245 44.7196 59.8756 44.0852 59.9811 43.39L64.9393 10.382C65.0028 9.96344 64.9752 9.53613 64.8584 9.12925C64.7416 8.72237 64.5383 8.34551 64.2624 8.02441C63.9865 7.70332 63.6446 7.44557 63.26 7.26877C62.8754 7.09197 62.4571 7.00029 62.0338 7H60.7339C60.0307 7.00048 59.351 7.2529 58.818 7.7115C58.2849 8.17009 57.9338 8.8045 57.8284 9.49972ZM130.332 21.1161L127.309 41.255L123.298 20.9867C123.162 20.3224 122.801 19.7254 122.276 19.2967C121.751 18.8679 121.094 18.6338 120.416 18.634H111.852C111.151 18.6338 110.474 18.8837 109.941 19.3388C109.408 19.7938 109.056 20.4241 108.946 21.1161L105.729 42.5195C105.666 42.9376 105.695 43.3643 105.812 43.7704C105.929 44.1766 106.133 44.5527 106.408 44.8731C106.684 45.1935 107.026 45.4507 107.41 45.6272C107.794 45.8036 108.212 45.8952 108.635 45.8956H110.47C111.173 45.8951 111.853 45.6427 112.386 45.1841C112.919 44.7255 113.27 44.0911 113.375 43.3959L116.21 24.5333L119.969 43.5312C120.104 44.1954 120.465 44.7924 120.99 45.2212C121.515 45.6499 122.173 45.884 122.851 45.8838H131.85C132.552 45.882 133.23 45.6289 133.762 45.1704C134.294 44.712 134.644 44.0783 134.749 43.3841L137.967 21.9807C138.029 21.5626 138.001 21.1359 137.884 20.7297C137.766 20.3236 137.563 19.9475 137.287 19.6271C137.011 19.3066 136.67 19.0494 136.286 18.873C135.901 18.6965 135.484 18.605 135.061 18.6046H133.226C132.523 18.6083 131.845 18.8636 131.314 19.3244C130.783 19.7851 130.435 20.4207 130.332 21.1161Z" fill="white"/>
</svg>
